<?xml version="1.0" encoding="utf-8" standalone="no"?>
<!DOCTYPE svg PUBLIC "-//W3C//DTD SVG 1.1//EN"
  "http://www.w3.org/Graphics/SVG/1.1/DTD/svg11.dtd">
<svg xmlns:xlink="http://www.w3.org/1999/xlink" width="56.88pt" height="56.88pt" viewBox="0 0 56.88 56.88" xmlns="http://www.w3.org/2000/svg" version="1.1">
 <metadata>
  <rdf:RDF xmlns:dc="http://purl.org/dc/elements/1.1/" xmlns:cc="http://creativecommons.org/ns#" xmlns:rdf="http://www.w3.org/1999/02/22-rdf-syntax-ns#">
   <cc:Work>
    <dc:type rdf:resource="http://purl.org/dc/dcmitype/StillImage"/>
    <dc:date>2026-02-26T14:55:54.313148</dc:date>
    <dc:format>image/svg+xml</dc:format>
    <dc:creator>
     <cc:Agent>
      <dc:title>Matplotlib v3.9.0, https://matplotlib.org/</dc:title>
     </cc:Agent>
    </dc:creator>
   </cc:Work>
  </rdf:RDF>
 </metadata>
 <defs>
  <style type="text/css">*{stroke-linejoin: round; stroke-linecap: butt}</style>
 </defs>
 <g id="figure_1">
  <g id="patch_1">
   <path d="M 0 56.88 
L 56.88 56.88 
L 56.88 0 
L 0 0 
L 0 56.88 
z
" style="fill: none"/>
  </g>
  <g id="axes_1">
   <g id="patch_2">
    <path d="M 7.2 49.68 
L 49.68 49.68 
L 49.68 7.2 
L 7.2 7.2 
L 7.2 49.68 
z
" style="fill: none"/>
   </g>
   <g id="matplotlib.axis_1"/>
   <g id="matplotlib.axis_2"/>
   <g id="QuadContourSet_1">
    <path clip-path="url(#p3e0137d4ef)" style="fill: none; stroke: #00224e; stroke-width: 0.5"/>
    <path d="M 7.2 43.274431 
L 7.363662 42.791351 
L 7.589275 42.217297 
L 7.774054 41.792551 
L 7.85187 41.643243 
L 8.174703 41.069189 
L 8.348108 40.773429 
L 8.546526 40.495135 
L 8.922162 39.977993 
L 8.973778 39.921081 
L 9.496216 39.348395 
L 9.497833 39.347027 
L 10.07027 38.859802 
L 10.210009 38.772973 
L 10.644324 38.498433 
L 11.218378 38.260638 
L 11.545864 38.198919 
L 11.792432 38.15116 
L 12.366486 38.174229 
L 12.458462 38.198919 
L 12.940541 38.340277 
L 13.514595 38.660618 
L 13.65376 38.772973 
L 14.088649 39.17089 
L 14.237486 39.347027 
L 14.647483 39.921081 
L 14.662703 39.947125 
L 14.931872 40.495135 
L 15.139 41.069189 
L 15.236757 41.488485 
L 15.268589 41.643243 
L 15.322332 42.217297 
L 15.307548 42.791351 
L 15.236757 43.273529 
L 15.222888 43.365405 
L 15.059743 43.939459 
L 14.823613 44.513514 
L 14.662703 44.806816 
L 14.503265 45.087568 
L 14.094455 45.661622 
L 14.088649 45.668237 
L 13.567794 46.235676 
L 13.514595 46.284279 
L 12.940541 46.776574 
L 12.898218 46.80973 
L 12.366486 47.161899 
L 11.991389 47.383784 
L 11.792432 47.48452 
L 11.218378 47.726337 
L 10.644324 47.913758 
L 10.425503 47.957838 
L 10.07027 48.019214 
L 9.496216 48.045214 
L 8.922162 47.9835 
L 8.831634 47.957838 
L 8.348108 47.780508 
L 7.774054 47.405241 
L 7.751753 47.383784 
L 7.32133 46.80973 
L 7.2 46.559624 
M 40.054612 26.584307 
L 39.921081 26.175539 
L 39.911416 26.143784 
L 39.714411 25.56973 
L 39.490458 24.995676 
L 39.347027 24.663907 
L 39.245328 24.421622 
L 38.983553 23.847568 
L 38.772973 23.421169 
L 38.701185 23.273514 
L 38.407356 22.699459 
L 38.198919 22.312664 
L 38.09826 22.125405 
L 37.781392 21.551351 
L 37.624865 21.272527 
L 37.457369 20.977297 
L 37.131233 20.403243 
L 37.050811 20.257686 
L 36.808293 19.829189 
L 36.494051 19.255135 
L 36.476757 19.220474 
L 36.197003 18.681081 
L 35.927977 18.107027 
L 35.902703 18.040487 
L 35.698944 17.532973 
L 35.529844 16.958919 
L 35.44351 16.384865 
L 35.4694 15.810811 
L 35.646557 15.236757 
L 35.902703 14.842136 
L 36.027575 14.662703 
L 36.476757 14.261489 
L 36.69137 14.088649 
L 37.050811 13.884275 
L 37.624865 13.599051 
L 37.823987 13.514595 
L 38.198919 13.393025 
L 38.772973 13.24229 
L 39.347027 13.132029 
L 39.921081 13.064411 
L 40.495135 13.04142 
L 41.069189 13.064874 
L 41.643243 13.136438 
L 42.217297 13.257639 
L 42.791351 13.42988 
L 43.003176 13.514595 
L 43.365405 13.678336 
L 43.939459 14.00145 
L 44.066147 14.088649 
L 44.513514 14.43542 
L 44.760569 14.662703 
L 45.087568 15.001452 
L 45.280787 15.236757 
L 45.661622 15.758288 
L 45.694533 15.810811 
L 46.007436 16.384865 
L 46.235676 16.857366 
L 46.264861 16.929734 
M 14.088649 19.337946 
L 13.883993 19.255135 
L 13.514595 19.101163 
L 12.940541 18.728376 
L 12.888475 18.681081 
L 12.366486 18.184833 
L 12.304405 18.107027 
L 11.873997 17.532973 
L 11.792432 17.414535 
L 11.543758 16.958919 
L 11.264721 16.384865 
L 11.218378 16.273975 
L 11.060306 15.810811 
L 10.902146 15.236757 
L 10.787339 14.662703 
L 10.721591 14.088649 
L 10.710984 13.514595 
L 10.762004 12.940541 
L 10.881583 12.366486 
L 11.077133 11.792432 
L 11.218378 11.502391 
L 11.386732 11.218378 
L 11.792432 10.704757 
L 11.852279 10.644324 
L 12.366486 10.23713 
L 12.642238 10.07027 
L 12.940541 9.924284 
L 13.514595 9.722885 
L 14.088649 9.593841 
L 14.662703 9.529653 
L 15.236757 9.522981 
L 15.810811 9.566689 
L 16.384865 9.653883 
L 16.958919 9.777943 
L 17.532973 9.932561 
L 17.973236 10.07027 
L 18.107027 10.121106 
L 18.681081 10.363521 
L 19.255135 10.622021 
L 19.302311 10.644324 
L 19.829189 10.953447 
L 20.273331 11.218378 
L 20.403243 11.317953 
L 20.977297 11.758084 
L 21.022695 11.792432 
L 21.551351 12.330277 
L 21.588149 12.366486 
L 21.984691 12.940541 
L 22.125405 13.299396 
L 22.214212 13.514595 
L 22.278771 14.088649 
L 22.180026 14.662703 
L 22.125405 14.787762 
L 21.931408 15.236757 
L 21.551351 15.79843 
L 21.542985 15.810811 
L 21.035239 16.384865 
L 20.977297 16.439104 
L 20.418637 16.958919 
L 20.403243 16.971457 
L 19.829189 17.43121 
L 19.697437 17.532973 
L 19.255135 17.844701 
L 18.862236 18.107027 
L 18.681081 18.220517 
L 18.107027 18.55373 
L 17.862058 18.681081 
L 17.532973 18.845629 
L 16.958919 19.091449 
L 16.477978 19.255135 
L 16.384865 19.286267 
L 15.810811 19.41827 
L 15.236757 19.479752 
L 14.662703 19.457809 
L 14.088649 19.337946 
z
" clip-path="url(#p3e0137d4ef)" style="fill: none; stroke: #00306f; stroke-width: 0.5"/>
    <path d="M 7.396973 49.105946 
L 7.2 48.999325 
M 7.2 39.761536 
L 8.478527 37.624865 
L 9.496216 36.280409 
L 10.644324 35.126695 
L 11.792432 34.377961 
L 12.438622 34.180541 
L 13.273111 34.180541 
L 13.514595 34.217933 
L 14.537563 34.754595 
L 15.199267 35.328649 
L 15.810811 36.023143 
L 16.850033 37.624865 
L 17.380071 38.772973 
L 17.738628 39.921081 
L 17.911886 41.069189 
L 17.881432 42.217297 
L 17.532973 43.617491 
L 17.134231 44.513514 
L 16.376915 45.661622 
L 15.236757 46.873579 
L 13.829599 47.957838 
L 12.366486 48.755373 
L 11.495489 49.105946 
M 37.658075 29.554898 
L 37.313536 27.865946 
L 36.74902 26.143784 
L 35.902703 24.34181 
L 34.754595 22.517999 
L 33.513022 20.977297 
L 32.368048 19.829189 
L 31.31027 18.967846 
L 30.162162 18.280875 
L 29.014054 17.866607 
L 27.865946 17.74032 
L 26.717838 17.868173 
L 24.995676 18.412744 
L 22.699459 19.536151 
L 18.357171 22.125405 
L 16.958919 22.886299 
L 15.810811 23.341114 
L 14.662703 23.516111 
L 13.634332 23.273514 
L 13.514595 23.231229 
L 12.749374 22.699459 
L 12.175053 22.125405 
L 11.330614 20.977297 
L 10.68872 19.829189 
L 10.182393 18.681081 
L 9.778555 17.532973 
L 9.345639 15.810811 
L 9.15436 14.088649 
L 9.18723 12.940541 
L 9.496216 11.4291 
L 9.835601 10.644324 
L 10.190026 10.07027 
L 10.683497 9.496216 
L 11.792432 8.714589 
L 12.940541 8.27782 
L 14.088649 8.088218 
L 15.810811 8.090067 
L 17.594652 8.348108 
L 19.829189 8.961007 
L 22.732193 10.07027 
L 26.143784 11.560222 
L 28.44 12.263301 
L 30.162162 12.396466 
L 31.884324 12.240383 
L 39.347027 11.160979 
L 41.069189 11.250302 
L 42.791351 11.615223 
L 43.939459 12.066489 
L 45.087568 12.762859 
L 45.933226 13.514595 
L 46.838202 14.662703 
L 47.235999 15.384542 
L 47.235999 15.384542 
" clip-path="url(#p3e0137d4ef)" style="fill: none; stroke: #263d6e; stroke-width: 0.5"/>
    <path d="M 7.2 37.172234 
L 10.294922 31.31027 
L 10.930475 29.588108 
L 11.123265 28.44 
L 11.12312 27.291892 
L 10.830262 25.56973 
L 9.773997 22.125405 
L 8.884205 19.255135 
L 8.246291 16.384865 
L 8.030015 14.088649 
L 8.122368 12.366486 
L 8.353447 11.218378 
L 8.922162 9.858874 
L 9.588866 8.922162 
L 10.644324 8.030799 
L 11.792432 7.465101 
L 12.684562 7.2 
M 35.168051 32.618976 
L 35.009775 30.736216 
L 34.673836 29.014054 
L 34.081565 27.291892 
L 33.504683 26.143784 
L 32.458378 24.651362 
L 31.31027 23.513819 
L 30.102469 22.699459 
L 29.014054 22.231111 
L 27.865946 21.978064 
L 26.717838 21.944595 
L 25.496235 22.125405 
L 24.421622 22.446183 
L 22.699459 23.248737 
L 21.551351 23.976588 
L 20.252733 24.995676 
L 19.104431 26.143784 
L 18.107027 27.561787 
L 17.70491 28.44 
L 17.472613 29.588108 
L 17.532973 30.814553 
L 17.767188 31.884324 
L 18.381729 33.606486 
L 20.171877 38.198919 
L 20.496809 39.921081 
L 20.504662 41.069189 
L 20.311775 42.217297 
L 19.829189 43.505227 
L 19.255135 44.529473 
L 18.107027 45.97667 
L 16.958919 47.086049 
L 16.616657 47.383784 
M 17.37392 7.2 
L 19.255135 7.585142 
L 22.125405 8.35546 
L 26.160817 9.496216 
L 28.44 9.950486 
L 30.736216 10.144517 
L 33.032432 10.114808 
L 39.347027 9.861146 
L 41.643243 10.078653 
L 43.365405 10.516713 
L 44.513514 10.995373 
L 45.800982 11.792432 
L 46.80973 12.715152 
L 47.456548 13.514595 
L 47.874398 14.172089 
L 47.874398 14.172089 
" clip-path="url(#p3e0137d4ef)" style="fill: none; stroke: #3e4b6c; stroke-width: 0.5"/>
    <path d="M 31.82466 36.536421 
L 31.822851 34.180541 
L 31.692222 31.884324 
L 31.31027 30.141007 
L 30.736216 28.845731 
L 30.035477 27.865946 
L 29.014054 26.990394 
L 27.865946 26.484096 
L 26.717838 26.348562 
L 25.56973 26.538949 
L 24.421622 27.073633 
L 23.467952 27.865946 
L 23.007208 28.44 
L 22.428471 29.588108 
L 22.173031 30.736216 
L 22.161354 31.884324 
L 22.466255 33.606486 
L 23.354978 36.476757 
L 23.781145 38.198919 
L 23.847568 39.699753 
L 23.745786 40.495135 
L 23.380969 41.643243 
L 22.416887 43.365405 
L 21.003489 45.087568 
M 7.2 34.533329 
L 8.014773 32.458378 
L 8.696398 30.162162 
L 8.971794 28.44 
L 9.034271 26.717838 
L 8.815187 24.421622 
L 8.264897 21.551351 
L 7.292317 16.384865 
L 7.2 15.558432 
M 7.2 12.404318 
L 7.411395 11.218378 
L 7.774054 10.054533 
L 8.370888 8.922162 
L 9.384359 7.774054 
L 10.174026 7.2 
M 21.732686 7.2 
L 26.143784 8.22754 
L 29.014054 8.678177 
L 31.884324 8.85227 
L 36.476757 8.803824 
L 39.921081 8.877474 
L 41.643243 9.08987 
L 43.390131 9.496216 
L 45.087568 10.192143 
L 46.235676 10.906965 
L 47.383784 11.922922 
L 48.327673 13.14476 
L 48.327673 13.14476 
" clip-path="url(#p3e0137d4ef)" style="fill: none; stroke: #51586d; stroke-width: 0.5"/>
    <path d="M 7.2 31.148544 
L 7.302616 30.736216 
L 7.425267 30.162162 
L 7.527593 29.588108 
L 7.610146 29.014054 
L 7.673551 28.44 
L 7.718502 27.865946 
L 7.745759 27.291892 
L 7.75615 26.717838 
L 7.750566 26.143784 
L 7.729962 25.56973 
L 7.69536 24.995676 
L 7.647842 24.421622 
L 7.588556 23.847568 
L 7.518715 23.273514 
L 7.439597 22.699459 
L 7.352547 22.125405 
L 7.258978 21.551351 
L 7.2 21.208987 
M 7.2 9.374039 
L 7.428945 8.922162 
L 7.771407 8.348108 
L 7.774054 8.344292 
L 8.221091 7.774054 
L 8.348108 7.63331 
L 8.793948 7.2 
M 25.885011 7.2 
L 26.143784 7.249337 
L 26.717838 7.350134 
L 27.291892 7.441474 
L 27.865946 7.523257 
L 28.44 7.59552 
L 29.014054 7.658427 
L 29.588108 7.712268 
L 30.162162 7.757447 
L 30.418078 7.774054 
L 30.736216 7.797081 
L 31.31027 7.83028 
L 31.884324 7.855732 
L 32.458378 7.874362 
L 33.032432 7.887179 
L 33.606486 7.895275 
L 34.180541 7.899812 
L 34.754595 7.902016 
L 35.328649 7.903172 
L 35.902703 7.904614 
L 36.476757 7.907719 
L 37.050811 7.913903 
L 37.624865 7.92461 
L 38.198919 7.941312 
L 38.772973 7.9655 
L 39.347027 7.998681 
L 39.921081 8.042371 
L 40.495135 8.098093 
L 41.069189 8.167373 
L 41.643243 8.251733 
L 42.190892 8.348108 
L 42.217297 8.353183 
L 42.791351 8.484847 
L 43.365405 8.63785 
L 43.939459 8.813759 
L 44.2479 8.922162 
L 44.513514 9.023858 
L 45.087568 9.273692 
L 45.543119 9.496216 
L 45.661622 9.559256 
L 46.235676 9.902525 
L 46.487713 10.07027 
L 46.80973 10.3035 
L 47.234466 10.644324 
L 47.383784 10.774773 
L 47.842859 11.218378 
L 47.957838 11.33936 
L 48.347874 11.792432 
L 48.531892 12.025146 
L 48.776881 12.366486 
L 48.90552 12.566912 
" clip-path="url(#p3e0137d4ef)" style="fill: none; stroke: #636670; stroke-width: 0.5"/>
    <path d="M 7.2 7.917179 
L 7.29931 7.774054 
L 7.75751 7.2 
M 38.34061 7.2 
L 38.772973 7.223217 
L 39.347027 7.262238 
L 39.921081 7.310751 
L 40.495135 7.370162 
L 41.069189 7.44188 
L 41.643243 7.527322 
L 42.217297 7.627905 
L 42.791351 7.745044 
L 42.913378 7.774054 
L 43.365405 7.890809 
L 43.939459 8.0605 
L 44.513514 8.252636 
L 44.765236 8.348108 
L 45.087568 8.480796 
L 45.661622 8.745971 
L 46.003648 8.922162 
L 46.235676 9.051858 
L 46.80973 9.408277 
L 46.937462 9.496216 
L 47.383784 9.82943 
L 47.67676 10.07027 
L 47.957838 10.320942 
L 48.287616 10.644324 
L 48.531892 10.90424 
L 48.800826 11.218378 
L 49.105946 11.605054 
L 49.183642 11.714737 
" clip-path="url(#p3e0137d4ef)" style="fill: none; stroke: #747475; stroke-width: 0.5"/>
    <path d="M 43.259423 7.2 
L 43.365405 7.226222 
L 43.939459 7.389031 
L 44.513514 7.572522 
L 45.076204 7.774054 
L 45.087568 7.778462 
L 45.661622 8.029388 
L 46.235676 8.306926 
L 46.312118 8.348108 
L 46.80973 8.638056 
L 47.253112 8.922162 
L 47.383784 9.012787 
L 47.957838 9.450963 
L 48.011782 9.496216 
L 48.531892 9.968079 
L 48.634849 10.07027 
L 49.105946 10.576051 
L 49.164151 10.644324 
L 49.615587 11.218378 
L 49.642296 11.256083 
" clip-path="url(#p3e0137d4ef)" style="fill: none; stroke: #858279; stroke-width: 0.5"/>
    <path d="M 45.210059 7.2 
L 45.661622 7.38596 
L 46.235676 7.64771 
L 46.485874 7.774054 
L 46.80973 7.950601 
L 47.383784 8.294699 
L 47.464636 8.348108 
L 47.957838 8.699687 
L 48.243283 8.922162 
L 48.531892 9.16503 
L 48.89222 9.496216 
L 49.105946 9.708379 
L 49.440126 10.07027 
L 49.68 10.350851 
" clip-path="url(#p3e0137d4ef)" style="fill: none; stroke: #989277; stroke-width: 0.5"/>
    <path d="M 46.554925 7.2 
L 46.80973 7.330297 
L 47.383784 7.653227 
L 47.579446 7.774054 
L 47.957838 8.025795 
L 48.401732 8.348108 
L 48.531892 8.449986 
L 49.085105 8.922162 
L 49.105946 8.941344 
L 49.659362 9.496216 
L 49.68 9.518536 
" clip-path="url(#p3e0137d4ef)" style="fill: none; stroke: #aca172; stroke-width: 0.5"/>
    <path d="M 47.612352 7.2 
L 47.957838 7.415057 
L 48.487181 7.774054 
L 48.531892 7.806689 
L 49.105946 8.26407 
L 49.202954 8.348108 
L 49.68 8.792633 
" clip-path="url(#p3e0137d4ef)" style="fill: none; stroke: #c0b16a; stroke-width: 0.5"/>
    <path d="M 48.499685 7.2 
L 48.531892 7.221977 
L 49.105946 7.649426 
L 49.260145 7.774054 
L 49.68 8.138556 
" clip-path="url(#p3e0137d4ef)" style="fill: none; stroke: #d5c25e; stroke-width: 0.5"/>
    <path d="M 49.258176 7.2 
L 49.68 7.541979 
" clip-path="url(#p3e0137d4ef)" style="fill: none; stroke: #ebd44b; stroke-width: 0.5"/>
    <path clip-path="url(#p3e0137d4ef)" style="fill: none; stroke: #fee838; stroke-width: 0.5"/>
   </g>
   <g id="QuadContourSet_2">
    <path clip-path="url(#p3e0137d4ef)" style="fill: none; stroke: #808080; stroke-width: 0.2"/>
    <path d="M 46.413458 17.35519 
L 46.481762 17.532973 
L 46.658694 18.107027 
L 46.80973 18.677238 
L 46.810606 18.681081 
L 46.917986 19.255135 
L 47.007463 19.829189 
L 47.081199 20.403243 
L 47.141409 20.977297 
L 47.190353 21.551351 
L 47.230331 22.125405 
L 47.263674 22.699459 
L 47.292729 23.273514 
L 47.319846 23.847568 
L 47.347364 24.421622 
L 47.377593 24.995676 
L 47.383784 25.099071 
L 47.407142 25.56973 
L 47.440949 26.143784 
L 47.481743 26.717838 
L 47.530925 27.291892 
L 47.589716 27.865946 
L 47.659127 28.44 
L 47.739927 29.014054 
L 47.832605 29.588108 
L 47.937334 30.162162 
L 47.957838 30.264993 
L 48.034628 30.736216 
L 48.136129 31.31027 
L 48.244983 31.884324 
L 48.359918 32.458378 
L 48.479269 33.032432 
L 48.531892 33.283088 
L 48.58791 33.606486 
L 48.686054 34.180541 
L 48.781138 34.754595 
L 48.870413 35.328649 
L 48.950758 35.902703 
L 49.018675 36.476757 
L 49.070283 37.050811 
L 49.101316 37.624865 
L 49.105946 38.083686 
L 49.10691 38.198919 
L 49.105946 38.226818 
L 49.082674 38.772973 
L 49.022572 39.347027 
L 48.921061 39.921081 
L 48.772043 40.495135 
L 48.569101 41.069189 
L 48.531892 41.150797 
L 48.244428 41.643243 
L 47.957838 42.0347 
L 47.777729 42.217297 
L 47.383784 42.545176 
L 46.950256 42.791351 
L 46.80973 42.858273 
L 46.235676 43.017433 
L 45.661622 43.073023 
L 45.087568 43.035817 
L 44.513514 42.915723 
L 44.145414 42.791351 
L 43.939459 42.70967 
L 43.365405 42.405361 
L 43.074791 42.217297 
L 42.791351 41.999692 
L 42.389995 41.643243 
L 42.217297 41.458974 
L 41.889948 41.069189 
L 41.643243 40.711007 
L 41.506471 40.495135 
L 41.213633 39.921081 
L 41.069189 39.561546 
L 40.988304 39.347027 
L 40.823012 38.772973 
L 40.701584 38.198919 
L 40.617499 37.624865 
L 40.564717 37.050811 
L 40.537635 36.476757 
L 40.531045 35.902703 
L 40.5401 35.328649 
L 40.560282 34.754595 
L 40.587373 34.180541 
L 40.617426 33.606486 
L 40.646746 33.032432 
L 40.671864 32.458378 
L 40.689518 31.884324 
L 40.696637 31.31027 
L 40.69032 30.736216 
L 40.667822 30.162162 
L 40.626541 29.588108 
L 40.563995 29.014054 
L 40.495135 28.553198 
L 40.479168 28.44 
L 40.376184 27.865946 
L 40.248144 27.291892 
L 40.182343 27.03063 
" clip-path="url(#p3e0137d4ef)" style="fill: none; stroke: #808080; stroke-width: 0.2"/>
    <path d="M 49.68 42.490397 
L 49.51234 42.791351 
L 49.126338 43.365405 
L 49.105946 43.391021 
L 48.565008 43.939459 
L 48.531892 43.968201 
L 47.957838 44.357302 
L 47.646806 44.513514 
L 47.383784 44.6282 
L 46.80973 44.799107 
L 46.235676 44.89758 
L 45.661622 44.930452 
L 45.087568 44.904129 
L 44.513514 44.824625 
L 43.939459 44.697594 
L 43.365405 44.528353 
L 43.324085 44.513514 
L 42.791351 44.294592 
L 42.217297 44.021737 
L 42.062068 43.939459 
L 41.643243 43.683472 
L 41.16475 43.365405 
L 41.069189 43.291532 
L 40.495135 42.818686 
L 40.463472 42.791351 
L 39.921081 42.241229 
L 39.898268 42.217297 
L 39.437373 41.643243 
L 39.347027 41.507929 
L 39.060398 41.069189 
L 38.772973 40.532013 
L 38.753462 40.495135 
L 38.508404 39.921081 
L 38.315009 39.347027 
L 38.198919 38.899814 
L 38.16605 38.772973 
L 38.055011 38.198919 
L 37.975655 37.624865 
L 37.922259 37.050811 
L 37.889551 36.476757 
L 37.872671 35.902703 
L 37.867132 35.328649 
L 37.868792 34.754595 
L 37.873825 34.180541 
L 37.878694 33.606486 
L 37.880131 33.032432 
L 37.875116 32.458378 
L 37.860863 31.884324 
L 37.834803 31.31027 
L 37.79457 30.736216 
L 37.737996 30.162162 
L 37.725947 30.06108 
M 47.428326 15.766269 
L 47.449547 15.810811 
L 47.679493 16.384865 
L 47.885288 16.958919 
L 47.957838 17.189144 
L 48.053701 17.532973 
L 48.193885 18.107027 
L 48.317244 18.681081 
L 48.42554 19.255135 
L 48.52055 19.829189 
L 48.531892 19.908552 
L 48.594175 20.403243 
L 48.657552 20.977297 
L 48.713796 21.551351 
L 48.764466 22.125405 
L 48.811087 22.699459 
L 48.855136 23.273514 
L 48.89804 23.847568 
L 48.941157 24.421622 
L 48.985769 24.995676 
L 49.033068 25.56973 
L 49.084141 26.143784 
L 49.105946 26.370387 
L 49.134942 26.717838 
L 49.187112 27.291892 
L 49.244381 27.865946 
L 49.30716 28.44 
L 49.375704 29.014054 
L 49.450096 29.588108 
L 49.530238 30.162162 
L 49.615837 30.736216 
L 49.68 31.144555 
" clip-path="url(#p3e0137d4ef)" style="fill: none; stroke: #808080; stroke-width: 0.2"/>
    <path d="M 14.037502 49.105946 
L 13.514595 49.365477 
L 12.940541 49.637972 
L 12.844684 49.68 
M 15.018946 48.531892 
L 14.662703 48.743329 
L 14.155517 49.039077 
M 49.68 44.634615 
L 49.192161 45.087568 
L 49.105946 45.157408 
L 48.531892 45.533276 
L 48.280773 45.661622 
L 47.957838 45.807133 
L 47.383784 45.999294 
L 46.80973 46.130504 
L 46.235676 46.206172 
L 45.661622 46.231408 
L 45.087568 46.21105 
L 44.513514 46.149675 
L 43.939459 46.051624 
L 43.365405 45.921009 
L 42.791351 45.761736 
L 42.479071 45.661622 
L 42.217297 45.566754 
L 41.643243 45.334827 
L 41.080642 45.087568 
L 41.069189 45.081841 
L 40.495135 44.77655 
L 40.023773 44.513514 
L 39.921081 44.447827 
L 39.347027 44.068434 
L 39.156036 43.939459 
L 38.772973 43.640395 
L 38.424798 43.365405 
L 38.198919 43.157268 
L 37.802522 42.791351 
L 37.624865 42.598009 
L 37.272466 42.217297 
L 37.050811 41.931534 
L 36.82358 41.643243 
L 36.476757 41.110572 
L 36.449143 41.069189 
L 36.13649 40.495135 
L 35.902703 39.957315 
L 35.886427 39.921081 
L 35.683655 39.347027 
L 35.528958 38.772973 
L 35.414413 38.198919 
L 35.332822 37.624865 
L 35.328649 37.581564 
L 35.275381 37.050811 
L 35.239177 36.476757 
L 35.21865 35.902703 
L 35.208565 35.328649 
L 35.20415 34.754595 
L 35.201051 34.180541 
L 35.195288 33.606486 
L 35.186511 33.17457 
M 48.077107 14.543434 
L 48.142096 14.662703 
L 48.414534 15.236757 
L 48.531892 15.511642 
L 48.646469 15.810811 
L 48.843225 16.384865 
L 49.020351 16.958919 
L 49.105946 17.270388 
L 49.17067 17.532973 
L 49.295943 18.107027 
L 49.407725 18.681081 
L 49.5075 19.255135 
L 49.596746 19.829189 
L 49.676921 20.403243 
L 49.68 20.427985 
" clip-path="url(#p3e0137d4ef)" style="fill: none; stroke: #808080; stroke-width: 0.2"/>
    <path d="M 18.457341 47.383784 
L 18.107027 47.639405 
L 17.683519 47.957838 
L 17.532973 48.058505 
L 16.958919 48.449806 
L 16.839813 48.531892 
L 16.384865 48.811691 
L 15.910947 49.105946 
L 15.810811 49.161688 
L 15.236757 49.478449 
L 14.868088 49.68 
M 49.68 46.015865 
L 49.371046 46.235676 
L 49.105946 46.402789 
L 48.531892 46.695467 
L 48.245246 46.80973 
L 47.957838 46.912035 
L 47.383784 47.0641 
L 46.80973 47.168216 
L 46.235676 47.228556 
L 45.661622 47.249091 
L 45.087568 47.233599 
L 44.513514 47.185683 
L 43.939459 47.108774 
L 43.365405 47.006143 
L 42.791351 46.88091 
L 42.508927 46.80973 
L 42.217297 46.727479 
L 41.643243 46.547036 
L 41.069189 46.350875 
L 40.752306 46.235676 
L 40.495135 46.130442 
L 39.921081 45.884612 
L 39.417453 45.661622 
L 39.347027 45.626301 
L 38.772973 45.33297 
L 38.298107 45.087568 
L 38.198919 45.029087 
L 37.624865 44.691072 
L 37.320701 44.513514 
L 37.050811 44.332255 
L 36.476757 43.953177 
L 36.455364 43.939459 
L 35.902703 43.527688 
L 35.677202 43.365405 
L 35.328649 43.070932 
L 34.982873 42.791351 
L 34.754595 42.572033 
L 34.365061 42.217297 
L 34.180541 42.01474 
L 33.819798 41.643243 
L 33.606486 41.373773 
L 33.346528 41.069189 
L 33.032432 40.607773 
L 32.948692 40.495135 
L 32.61513 39.921081 
L 32.458378 39.564545 
L 32.352551 39.347027 
L 32.147798 38.772973 
L 32.005543 38.198919 
L 31.912518 37.624865 
L 31.884324 37.334269 
L 31.856164 37.078971 
M 48.555587 13.4909 
L 48.570061 13.514595 
L 48.877949 14.088649 
L 49.105946 14.553637 
L 49.154345 14.662703 
L 49.383622 15.236757 
L 49.592236 15.810811 
L 49.68 16.079133 
" clip-path="url(#p3e0137d4ef)" style="fill: none; stroke: #808080; stroke-width: 0.2"/>
    <path d="M 49.68 47.081686 
L 49.141476 47.383784 
L 49.105946 47.401654 
L 48.531892 47.635577 
L 47.957838 47.818755 
L 47.383784 47.955267 
L 47.368036 47.957838 
L 46.80973 48.040131 
L 46.235676 48.0895 
L 45.661622 48.106797 
L 45.087568 48.095054 
L 44.513514 48.057171 
L 43.939459 47.995926 
L 43.67238 47.957838 
L 43.365405 47.909283 
L 42.791351 47.798468 
L 42.217297 47.670242 
L 41.643243 47.527177 
L 41.113578 47.383784 
L 41.069189 47.370387 
L 40.495135 47.186456 
L 39.921081 46.993838 
L 39.389654 46.80973 
L 39.347027 46.793174 
L 38.772973 46.566473 
L 38.198919 46.337576 
L 37.942524 46.235676 
L 37.624865 46.093197 
L 37.050811 45.838753 
L 36.642878 45.661622 
L 36.476757 45.579638 
L 35.902703 45.305285 
L 35.429331 45.087568 
L 35.328649 45.034501 
L 34.754595 44.747557 
L 34.258041 44.513514 
L 34.180541 44.471239 
L 33.606486 44.181445 
L 33.084876 43.939459 
L 33.032432 43.910965 
L 32.458378 43.631763 
L 31.884324 43.384578 
L 31.831733 43.365405 
L 31.31027 43.138784 
L 30.736216 42.933233 
L 30.220861 42.791351 
L 30.162162 42.771687 
L 29.588108 42.64316 
L 29.014054 42.579841 
L 28.44 42.587526 
L 27.865946 42.672681 
L 27.461236 42.791351 
L 27.291892 42.833526 
L 26.717838 43.048652 
L 26.143784 43.345085 
L 26.112521 43.365405 
L 25.56973 43.666256 
L 25.167975 43.939459 
L 24.995676 44.040252 
L 24.421622 44.435579 
L 24.3231 44.513514 
L 23.847568 44.838897 
L 23.526827 45.087568 
L 23.273514 45.258692 
L 22.738338 45.661622 
L 22.699459 45.687294 
L 22.125405 46.10108 
L 21.95357 46.235676 
L 21.551351 46.513173 
L 21.152324 46.80973 
L 20.977297 46.924947 
L 20.403243 47.327275 
L 20.326704 47.383784 
L 19.829189 47.710319 
L 19.470602 47.957838 
L 19.255135 48.090696 
L 18.681081 48.459076 
L 18.570991 48.531892 
L 18.107027 48.806899 
L 17.617626 49.105946 
L 17.532973 49.152497 
L 16.958919 49.472531 
L 16.592333 49.68 
M 49.133874 12.912613 
L 49.151093 12.940541 
L 49.464572 13.514595 
L 49.68 13.944649 
" clip-path="url(#p3e0137d4ef)" style="fill: none; stroke: #808080; stroke-width: 0.2"/>
    <path d="M 49.68 47.971356 
L 49.105946 48.2313 
L 48.531892 48.441973 
L 48.219434 48.531892 
L 47.957838 48.600093 
L 47.383784 48.711886 
L 46.80973 48.788942 
L 46.235676 48.834243 
L 45.661622 48.850647 
L 45.087568 48.840893 
L 44.513514 48.807603 
L 43.939459 48.753294 
L 43.365405 48.680375 
L 42.791351 48.591158 
L 42.461655 48.531892 
L 42.217297 48.483333 
L 41.643243 48.356223 
L 41.069189 48.218152 
L 40.495135 48.071261 
L 40.071025 47.957838 
L 39.921081 47.913286 
L 39.347027 47.737804 
L 38.772973 47.559018 
L 38.214406 47.383784 
L 38.198919 47.378356 
L 37.624865 47.178619 
L 37.050811 46.981409 
L 36.539271 46.80973 
L 36.476757 46.786141 
L 35.902703 46.577531 
L 35.328649 46.377698 
L 34.896981 46.235676 
L 34.754595 46.1826 
L 34.180541 45.983578 
L 33.606486 45.800196 
L 33.126288 45.661622 
L 33.032432 45.630645 
L 32.458378 45.464267 
L 31.884324 45.321379 
L 31.31027 45.203888 
L 30.736216 45.113657 
L 30.489458 45.087568 
L 30.162162 45.047365 
L 29.588108 45.012555 
L 29.014054 45.015203 
L 28.44 45.057514 
L 28.232822 45.087568 
L 27.865946 45.134489 
L 27.291892 45.245429 
L 26.717838 45.396075 
L 26.143784 45.588223 
L 25.962485 45.661622 
L 25.56973 45.802129 
L 24.995676 46.044617 
L 24.604422 46.235676 
L 24.421622 46.314875 
L 23.847568 46.59524 
L 23.455191 46.80973 
L 23.273514 46.898172 
L 22.699459 47.204877 
L 22.392507 47.383784 
L 22.125405 47.522904 
L 21.551351 47.845341 
L 21.363753 47.957838 
L 20.977297 48.165604 
L 20.403243 48.494086 
L 20.340185 48.531892 
L 19.829189 48.807393 
L 19.302367 49.105946 
L 19.255135 49.130109 
L 18.681081 49.433148 
L 18.229879 49.68 
M 49.642954 12.403532 
L 49.68 12.463618 
" clip-path="url(#p3e0137d4ef)" style="fill: none; stroke: #808080; stroke-width: 0.2"/>
    <path d="M 49.68 48.726399 
L 49.105946 48.961495 
L 48.671224 49.105946 
L 48.531892 49.148036 
L 47.957838 49.284255 
L 47.383784 49.386234 
L 46.80973 49.456782 
L 46.235676 49.498597 
L 45.661622 49.514267 
L 45.087568 49.506274 
L 44.513514 49.477003 
L 43.939459 49.42874 
L 43.365405 49.363681 
L 42.791351 49.283934 
L 42.217297 49.191521 
L 41.740788 49.105946 
L 41.643243 49.086643 
L 41.069189 48.963541 
L 40.495135 48.832638 
L 39.921081 48.695807 
L 39.347027 48.554839 
L 39.254857 48.531892 
L 38.772973 48.399006 
L 38.198919 48.239898 
L 37.624865 48.081607 
L 37.168452 47.957838 
L 37.050811 47.922315 
L 36.476757 47.754064 
L 35.902703 47.591867 
L 35.328649 47.437311 
L 35.116467 47.383784 
L 34.754595 47.281422 
L 34.180541 47.131127 
L 33.606486 46.994058 
L 33.032432 46.871689 
L 32.696549 46.80973 
L 32.458378 46.760035 
L 31.884324 46.660318 
L 31.31027 46.581514 
L 30.736216 46.525041 
L 30.162162 46.492264 
L 29.588108 46.4845 
L 29.014054 46.503017 
L 28.44 46.549041 
L 27.865946 46.623752 
L 27.291892 46.728291 
L 26.944863 46.80973 
L 26.717838 46.857436 
L 26.143784 47.005028 
L 25.56973 47.181268 
L 25.004138 47.383784 
L 24.995676 47.386504 
L 24.421622 47.594676 
L 23.847568 47.829216 
L 23.562756 47.957838 
L 23.273514 48.075391 
L 22.699459 48.33028 
L 22.281439 48.531892 
L 22.125405 48.599817 
L 21.551351 48.867037 
L 21.071627 49.105946 
L 20.977297 49.148465 
L 20.403243 49.420596 
L 19.884805 49.68 
" clip-path="url(#p3e0137d4ef)" style="fill: none; stroke: #808080; stroke-width: 0.2"/>
    <path d="M 41.340058 49.68 
L 41.069189 49.627949 
L 40.495135 49.510868 
L 39.921081 49.388568 
L 39.347027 49.262691 
L 38.772973 49.134813 
L 38.643492 49.105946 
L 38.198919 48.996515 
L 37.624865 48.856337 
L 37.050811 48.718662 
L 36.476757 48.584933 
L 36.238915 48.531892 
L 35.902703 48.448647 
L 35.328649 48.314084 
L 34.754595 48.188157 
L 34.180541 48.072185 
L 33.606486 47.967425 
L 33.546526 47.957838 
L 33.032432 47.865885 
L 32.458378 47.778239 
L 31.884324 47.706758 
L 31.31027 47.652594 
L 30.736216 47.616845 
L 30.162162 47.600549 
L 29.588108 47.604691 
L 29.014054 47.630199 
L 28.44 47.677947 
L 27.865946 47.748753 
L 27.291892 47.843381 
L 26.740226 47.957838 
L 26.717838 47.962035 
L 26.143784 48.090793 
L 25.56973 48.242238 
L 24.995676 48.416744 
L 24.659861 48.531892 
L 24.421622 48.605835 
L 23.847568 48.8035 
L 23.273514 49.02188 
L 23.069965 49.105946 
L 22.699459 49.244743 
L 22.125405 49.476795 
L 21.657035 49.68 
M 49.68 49.398928 
L 49.105946 49.612542 
L 48.882742 49.68 
" clip-path="url(#p3e0137d4ef)" style="fill: none; stroke: #808080; stroke-width: 0.2"/>
    <path d="M 38.246582 49.68 
L 38.198919 49.66952 
L 37.624865 49.544866 
L 37.050811 49.422705 
L 36.476757 49.304362 
L 35.902703 49.191099 
L 35.44529 49.105946 
L 35.328649 49.081916 
L 34.754595 48.972273 
L 34.180541 48.871949 
L 33.606486 48.782087 
L 33.032432 48.703772 
L 32.458378 48.638033 
L 31.884324 48.585843 
L 31.31027 48.54812 
L 30.893383 48.531892 
L 30.736216 48.525056 
L 30.162162 48.518109 
L 29.588108 48.529903 
L 29.551359 48.531892 
L 29.014054 48.558315 
L 28.44 48.604754 
L 27.865946 48.669999 
L 27.291892 48.754577 
L 26.717838 48.858952 
L 26.143784 48.983528 
L 25.658723 49.105946 
L 25.56973 49.126375 
L 24.995676 49.275557 
L 24.421622 49.443352 
L 23.847568 49.629805 
L 23.705864 49.68 
" clip-path="url(#p3e0137d4ef)" style="fill: none; stroke: #808080; stroke-width: 0.2"/>
    <path d="M 34.83327 49.68 
L 34.754595 49.666794 
L 34.180541 49.579586 
L 33.606486 49.502132 
L 33.032432 49.435416 
L 32.458378 49.380373 
L 31.884324 49.337883 
L 31.31027 49.308771 
L 30.736216 49.293813 
L 30.162162 49.293727 
L 29.588108 49.309181 
L 29.014054 49.340787 
L 28.44 49.389103 
L 27.865946 49.454632 
L 27.291892 49.537818 
L 26.717838 49.639048 
L 26.520051 49.68 
" clip-path="url(#p3e0137d4ef)" style="fill: none; stroke: #808080; stroke-width: 0.2"/>
    <path clip-path="url(#p3e0137d4ef)" style="fill: none; stroke: #808080; stroke-width: 0.2"/>
   </g>
   <g id="line2d_1">
    <defs>
     <path id="m07243e28f9" d="M -1.5 1.5 
L 1.5 -1.5 
M -1.5 -1.5 
L 1.5 1.5 
" style="stroke: #ff0000"/>
    </defs>
    <g clip-path="url(#p3e0137d4ef)">
     <use xlink:href="#m07243e28f9" x="10.601656" y="43.936638" style="fill: #ff0000; stroke: #ff0000"/>
    </g>
   </g>
   <g id="line2d_2">
    <g clip-path="url(#p3e0137d4ef)">
     <use xlink:href="#m07243e28f9" x="42.6" y="19" style="fill: #ff0000; stroke: #ff0000"/>
    </g>
   </g>
   <g id="line2d_3">
    <g clip-path="url(#p3e0137d4ef)">
     <use xlink:href="#m07243e28f9" x="15.199843" y="13.660205" style="fill: #ff0000; stroke: #ff0000"/>
    </g>
   </g>
   <g id="line2d_4">
    <path d="M 7.2 49.68 
L 7.774054 49.673018 
L 8.348108 49.652073 
L 8.922162 49.617164 
L 9.496216 49.568292 
L 10.07027 49.505457 
L 10.644324 49.428657 
L 11.218378 49.337895 
L 11.792432 49.233169 
L 12.366486 49.114479 
L 12.940541 48.981826 
L 13.514595 48.83521 
L 14.088649 48.67463 
L 14.662703 48.500086 
L 15.236757 48.311579 
L 15.810811 48.109109 
L 16.384865 47.892675 
L 16.958919 47.662278 
L 17.532973 47.417917 
L 18.107027 47.159592 
L 18.681081 46.887305 
L 19.255135 46.601053 
L 19.829189 46.300839 
L 20.403243 45.98666 
L 20.977297 45.658519 
L 21.551351 45.316413 
L 22.125405 44.960345 
L 22.699459 44.590313 
L 23.273514 44.206317 
L 23.847568 43.808358 
L 24.421622 43.396435 
L 24.995676 42.970549 
L 25.56973 42.5307 
L 26.143784 42.076887 
L 26.717838 41.60911 
L 27.291892 41.12737 
L 27.865946 40.631667 
L 28.44 40.122 
L 29.014054 39.59837 
L 29.588108 39.060776 
L 30.162162 38.509218 
L 30.736216 37.943698 
L 31.31027 37.364213 
L 31.884324 36.770766 
L 32.458378 36.163354 
L 33.032432 35.54198 
L 33.606486 34.906641 
L 34.180541 34.25734 
L 34.754595 33.594075 
L 35.328649 32.916846 
L 35.902703 32.225654 
L 36.476757 31.520498 
L 37.050811 30.801379 
L 37.624865 30.068297 
L 38.198919 29.321251 
L 38.772973 28.560241 
L 39.347027 27.785268 
L 39.921081 26.996332 
L 40.495135 26.193432 
L 41.069189 25.376568 
L 41.643243 24.545741 
L 42.217297 23.700951 
L 42.791351 22.842197 
L 43.365405 21.96948 
L 43.939459 21.082799 
L 44.513514 20.182155 
L 45.087568 19.267547 
L 45.661622 18.338976 
L 46.235676 17.396441 
L 46.80973 16.439943 
L 47.383784 15.469481 
L 47.957838 14.485056 
L 48.531892 13.486668 
L 49.105946 12.474316 
L 49.68 11.448 
" clip-path="url(#p3e0137d4ef)" style="fill: none; stroke-dasharray: 1.85,0.8; stroke-dashoffset: 0; stroke: #000000; stroke-width: 0.5"/>
   </g>
  </g>
 </g>
 <defs>
  <clipPath id="p3e0137d4ef">
   <rect x="7.2" y="7.2" width="42.48" height="42.48"/>
  </clipPath>
 </defs>
</svg>
