solid Created by Gmsh
facet normal -1 3.31999e-17 -2.75563e-16
  outer loop
    vertex -5.137331796025423e-16 -0.4864626426386016 1.805694803526285
    vertex -4.691731769380165e-16 -0.5031369493515234 1.641980557772327
    vertex -5.061444019858052e-16 -0.6186855581447851 1.762225378184594
  endloop
endfacet
facet normal -1 3.31999e-17 -2.75563e-16
  outer loop
    vertex -4.646430211794704e-16 0.4360709288220967 1.738696921684534
    vertex -4.324986259750875e-16 0.3615488643128064 1.613068587010573
    vertex -4.688959082659058e-16 0.2899378523169647 1.736524219593621
  endloop
endfacet
facet normal -1 3.31999e-17 -2.75563e-16
  outer loop
    vertex -4.691731769380165e-16 -0.5031369493515234 1.641980557772327
    vertex -4.684727146011314e-16 -0.6580697649255084 1.620772281392712
    vertex -5.061444019858052e-16 -0.6186855581447851 1.762225378184594
  endloop
endfacet
facet normal -1 3.31999e-17 -2.75563e-16
  outer loop
    vertex -4.292285293180297e-16 0.5114365009092204 1.619260121322803
    vertex -4.660612892300096e-16 0.5963966023211746 1.763159800702639
    vertex -4.231506611644188e-16 0.654606879551067 1.61445314047891
  endloop
endfacet
facet normal -1 3.31999e-17 -2.75563e-16
  outer loop
    vertex -4.660612892300096e-16 0.5963966023211746 1.763159800702639
    vertex -4.292285293180297e-16 0.5114365009092204 1.619260121322803
    vertex -4.646430211794704e-16 0.4360709288220967 1.738696921684534
  endloop
endfacet
facet normal -1 3.31999e-17 -2.75563e-16
  outer loop
    vertex -4.991393478894273e-16 0.3678311545529392 1.855660278969058
    vertex -4.646430211794704e-16 0.4360709288220967 1.738696921684534
    vertex -4.688959082659058e-16 0.2899378523169647 1.736524219593621
  endloop
endfacet
facet normal -1 3.31999e-17 -2.75563e-16
  outer loop
    vertex -4.691731769380165e-16 -0.5031369493515234 1.641980557772327
    vertex -5.137331796025423e-16 -0.4864626426386016 1.805694803526285
    vertex -4.893708355442839e-16 -0.3963451722873246 1.728142833584283
  endloop
endfacet
facet normal -1 3.31999e-17 -2.75563e-16
  outer loop
    vertex -4.292285293180297e-16 0.5114365009092204 1.619260121322803
    vertex -4.324986259750875e-16 0.3615488643128064 1.613068587010573
    vertex -4.646430211794704e-16 0.4360709288220967 1.738696921684534
  endloop
endfacet
facet normal -1 3.31999e-17 -2.75563e-16
  outer loop
    vertex -5.061444019858052e-16 -0.6186855581447851 1.762225378184594
    vertex -4.684727146011314e-16 -0.6580697649255084 1.620772281392712
    vertex -5.005762736392614e-16 -0.7509924035728939 1.726078644344743
  endloop
endfacet
facet normal -1 3.31999e-17 -2.75563e-16
  outer loop
    vertex -4.231506611644188e-16 0.654606879551067 1.61445314047891
    vertex -4.660612892300096e-16 0.5963966023211746 1.763159800702639
    vertex -4.497968622381063e-16 0.7495312597468268 1.722586966132461
  endloop
endfacet
facet normal -1 3.31999e-17 -2.75563e-16
  outer loop
    vertex -4.749044901903103e-16 0.143427809225584 1.74067740165237
    vertex -5.052443209561307e-16 0.2190128482382467 1.859885158014361
    vertex -4.688959082659058e-16 0.2899378523169647 1.736524219593621
  endloop
endfacet
facet normal -1 3.01873e-17 5.35488e-16
  outer loop
    vertex -5.170078401322985e-16 -0.06988692823595599 1.867767478235124
    vertex -4.440892098501e-16 1.573929626854e-15 2
    vertex -5.123772498971773e-16 0.07402597524550747 1.868302033418556
  endloop
endfacet
facet normal -1 2.93066e-16 6.8325e-16
  outer loop
    vertex -4.440892098501e-16 1.573929626854e-15 2
    vertex -4.041084507475246e-16 0.1494601871728418 1.994407594362361
    vertex -5.123772498971773e-16 0.07402597524550747 1.868302033418556
  endloop
endfacet
facet normal -1 3.31999e-17 -2.75563e-16
  outer loop
    vertex -3.876308613953637e-16 -0.3606417415942124 1.363236712287689
    vertex -3.832144702125064e-16 -0.2168636317696169 1.364532341780459
    vertex -3.507721119876617e-16 -0.2877770193034504 1.238257493197834
  endloop
endfacet
facet normal -1 8.09973e-16 1.352e-15
  outer loop
    vertex -2.715627690442248e-16 0.5895103488217764 1.911145611572291
    vertex -2.240035044051043e-16 0.7306820487327512 1.861747497288424
    vertex -4.660612892300096e-16 0.5963966023211746 1.763159800702639
  endloop
endfacet
facet normal -1 3.31999e-17 -2.75563e-16
  outer loop
    vertex -3.832144702125064e-16 -0.2168636317696169 1.364532341780459
    vertex -3.462629981897756e-16 -0.1442226927656831 1.23918967694791
    vertex -3.507721119876617e-16 -0.2877770193034504 1.238257493197834
  endloop
endfacet
facet normal -1 3.31999e-17 -2.75563e-16
  outer loop
    vertex -3.140841653719119e-16 -0.215406953274351 1.113838509903592
    vertex -2.775536032176962e-16 -0.1434317756796669 0.9899430882186828
    vertex -2.821588461498722e-16 -0.2862754183260126 0.9894453741531408
  endloop
endfacet
facet normal -1 2.85973e-16 -3.21992e-16
  outer loop
    vertex -5.771563755072086e-16 -0.5895103488217742 1.911145611572292
    vertex -5.483065878403051e-16 -0.4450418679126024 1.949855824363653
    vertex -5.137331796025423e-16 -0.4864626426386016 1.805694803526285
  endloop
endfacet
facet normal -1 3.31999e-17 -2.75563e-16
  outer loop
    vertex -3.094809593708855e-16 -0.0718641216661291 1.114427854320418
    vertex -2.775536032176962e-16 -0.1434317756796669 0.9899430882186828
    vertex -3.140841653719119e-16 -0.215406953274351 1.113838509903592
  endloop
endfacet
facet normal -1 3.31999e-17 -2.75563e-16
  outer loop
    vertex -3.507721119876617e-16 -0.2877770193034504 1.238257493197834
    vertex -3.462629981897756e-16 -0.1442226927656831 1.23918967694791
    vertex -3.140841653719119e-16 -0.215406953274351 1.113838509903592
  endloop
endfacet
facet normal -1 3.31999e-17 -2.75563e-16
  outer loop
    vertex -3.462629981897756e-16 -0.1442226927656831 1.23918967694791
    vertex -3.094809593708855e-16 -0.0718641216661291 1.114427854320418
    vertex -3.140841653719119e-16 -0.215406953274351 1.113838509903592
  endloop
endfacet
facet normal -1 2.34896e-16 4.27296e-16
  outer loop
    vertex -4.815864419516949e-16 -0.1494601871728389 1.994407594362361
    vertex -4.440892098501e-16 1.573929626854e-15 2
    vertex -5.170078401322985e-16 -0.06988692823595599 1.867767478235124
  endloop
endfacet
facet normal -1 5.76453e-16 1.45472e-15
  outer loop
    vertex -3.618677532668714e-16 0.298084532352334 1.977661652450259
    vertex -3.176033445227689e-16 0.4450418679126061 1.949855824363652
    vertex -4.991393478894273e-16 0.3678311545529392 1.855660278969058
  endloop
endfacet
facet normal -1 3.31999e-17 -2.75563e-16
  outer loop
    vertex -4.203290343404523e-16 -0.2896790585465323 1.490445834813273
    vertex -3.832144702125064e-16 -0.2168636317696169 1.364532341780459
    vertex -3.876308613953637e-16 -0.3606417415942124 1.363236712287689
  endloop
endfacet
facet normal -1 3.31999e-17 -2.75563e-16
  outer loop
    vertex -3.646350056305872e-17 -0.0714285714286025 0.1237179148263395
    vertex -3.172065784644237e-17 0.0714285714286025 0.1237179148263395
    vertex 0 0 0
  endloop
endfacet
facet normal -1 3.31999e-17 -2.75563e-16
  outer loop
    vertex -1.458540022522348e-16 -0.2857142857144098 0.4948716593053579
    vertex -1.823175028152936e-16 -0.3571428571430124 0.6185895741316976
    vertex -1.775684916981738e-16 -0.2142855360241556 0.618567210889111
  endloop
endfacet
facet normal -1 3.31999e-17 -2.75563e-16
  outer loop
    vertex -1.363683168189317e-16 5.809241976351132e-14 0.4948716593054227
    vertex -1.4111115953554e-16 -0.1428571428571907 0.4948716593054141
    vertex -1.728318173819777e-16 -0.0714285714284465 0.6185895741318195
  endloop
endfacet
facet normal -1 3.31999e-17 -2.75563e-16
  outer loop
    vertex -2.14006322040943e-16 -0.2857142857143379 0.7421919486962155
    vertex -2.092901461632802e-16 -0.1428560732875363 0.7422888497641619
    vertex -1.775684916981738e-16 -0.2142855360241556 0.618567210889111
  endloop
endfacet
facet normal -1 3.31999e-17 -2.75563e-16
  outer loop
    vertex -1.4111115953554e-16 -0.1428571428571907 0.4948716593054141
    vertex -1.363683168189317e-16 5.809241976351132e-14 0.4948716593054227
    vertex -1.046476589724988e-16 -0.07142857142859199 0.3711537444790465
  endloop
endfacet
facet normal -1 3.31999e-17 -2.75563e-16
  outer loop
    vertex -1.4111115953554e-16 -0.1428571428571907 0.4948716593054141
    vertex -1.458540022522348e-16 -0.2857142857144098 0.4948716593053579
    vertex -1.775684916981738e-16 -0.2142855360241556 0.618567210889111
  endloop
endfacet
facet normal -1 3.31999e-17 -2.75563e-16
  outer loop
    vertex -1.823175028152936e-16 -0.3571428571430124 0.6185895741316976
    vertex -2.14006322040943e-16 -0.2857142857143379 0.7421919486962155
    vertex -1.775684916981738e-16 -0.2142855360241556 0.618567210889111
  endloop
endfacet
facet normal -1 3.31999e-17 -2.75563e-16
  outer loop
    vertex -1.363683168189317e-16 5.809241976351132e-14 0.4948716593054227
    vertex -9.990481625589033e-17 0.07142857142861511 0.3711537444790494
    vertex -1.046476589724988e-16 -0.07142857142859199 0.3711537444790465
  endloop
endfacet
facet normal -1 3.31999e-17 -2.75563e-16
  outer loop
    vertex -1.728318173819777e-16 -0.0714285714284465 0.6185895741318195
    vertex -1.4111115953554e-16 -0.1428571428571907 0.4948716593054141
    vertex -1.775684916981738e-16 -0.2142855360241556 0.618567210889111
  endloop
endfacet
facet normal -1 3.31999e-17 -2.75563e-16
  outer loop
    vertex -6.344131569288472e-17 0.1428571428572049 0.247435829652679
    vertex -3.172065784644237e-17 0.0714285714286025 0.1237179148263395
    vertex -6.818415840946313e-17 -2.202404925100154e-14 0.2474358296526953
  endloop
endfacet
facet normal -1 3.31999e-17 -2.75563e-16
  outer loop
    vertex -6.344131569288472e-17 0.1428571428572049 0.247435829652679
    vertex -6.818415840946313e-17 -2.202404925100154e-14 0.2474358296526953
    vertex -9.990481625589033e-17 0.07142857142861511 0.3711537444790494
  endloop
endfacet
facet normal -1 3.31999e-17 -2.75563e-16
  outer loop
    vertex -9.990481625589033e-17 0.07142857142861511 0.3711537444790494
    vertex -6.818415840946313e-17 -2.202404925100154e-14 0.2474358296526953
    vertex -1.046476589724988e-16 -0.07142857142859199 0.3711537444790465
  endloop
endfacet
facet normal -1 3.31999e-17 -2.75563e-16
  outer loop
    vertex -3.172065784644237e-17 0.0714285714286025 0.1237179148263395
    vertex -3.646350056305872e-17 -0.0714285714286025 0.1237179148263395
    vertex -6.818415840946313e-17 -2.202404925100154e-14 0.2474358296526953
  endloop
endfacet
facet normal -1 3.31999e-17 -2.75563e-16
  outer loop
    vertex -9.516197353932706e-17 0.2142857142858074 0.3711537444790184
    vertex -6.344131569288472e-17 0.1428571428572049 0.247435829652679
    vertex -9.990481625589033e-17 0.07142857142861511 0.3711537444790494
  endloop
endfacet
facet normal -1 3.31999e-17 -2.75563e-16
  outer loop
    vertex -1.316254741023162e-16 0.1428571428572558 0.4948716593053992
    vertex -9.516197353932706e-17 0.2142857142858074 0.3711537444790184
    vertex -9.990481625589033e-17 0.07142857142861511 0.3711537444790494
  endloop
endfacet
facet normal -1 3.31999e-17 -2.75563e-16
  outer loop
    vertex -1.316254741023162e-16 0.1428571428572558 0.4948716593053992
    vertex -9.990481625589033e-17 0.07142857142861511 0.3711537444790494
    vertex -1.363683168189317e-16 5.809241976351132e-14 0.4948716593054227
  endloop
endfacet
facet normal -1 3.31999e-17 -2.75563e-16
  outer loop
    vertex -1.268826313857694e-16 0.2857142857144098 0.4948716593053579
    vertex -1.316254741023162e-16 0.1428571428572558 0.4948716593053992
    vertex -1.63345791741769e-16 0.2142857142858694 0.6185883395429992
  endloop
endfacet
facet normal -1 3.31999e-17 -2.75563e-16
  outer loop
    vertex -2.092901461632802e-16 -0.1428560732875363 0.7422888497641619
    vertex -1.728318173819777e-16 -0.0714285714284465 0.6185895741318195
    vertex -1.775684916981738e-16 -0.2142855360241556 0.618567210889111
  endloop
endfacet
facet normal -1 3.31999e-17 -2.75563e-16
  outer loop
    vertex -1.316254741023162e-16 0.1428571428572558 0.4948716593053992
    vertex -1.363683168189317e-16 5.809241976351132e-14 0.4948716593054227
    vertex -1.680889746653576e-16 0.0714285714287235 0.6185895741317755
  endloop
endfacet
facet normal -1 3.31999e-17 -2.75563e-16
  outer loop
    vertex -1.680889746653576e-16 0.0714285714287235 0.6185895741317755
    vertex -1.363683168189317e-16 5.809241976351132e-14 0.4948716593054227
    vertex -1.728318173819777e-16 -0.0714285714284465 0.6185895741318195
  endloop
endfacet
facet normal -1 3.31999e-17 -2.75563e-16
  outer loop
    vertex -1.316254741023162e-16 0.1428571428572558 0.4948716593053992
    vertex -1.680889746653576e-16 0.0714285714287235 0.6185895741317755
    vertex -1.63345791741769e-16 0.2142857142858694 0.6185883395429992
  endloop
endfacet
facet normal -1 3.31999e-17 -2.75563e-16
  outer loop
    vertex -1.680889746653576e-16 0.0714285714287235 0.6185895741317755
    vertex -1.728318173819777e-16 -0.0714285714284465 0.6185895741318195
    vertex -2.045532831585582e-16 6.417417265147662e-06 0.7423111940556242
  endloop
endfacet
facet normal -1 3.31999e-17 -2.75563e-16
  outer loop
    vertex -1.903239470786542e-16 0.4285714285716148 0.7423074889580369
    vertex -1.586032892322118e-16 0.3571428571430124 0.6185895741316976
    vertex -1.950647485533485e-16 0.2857142857144713 0.7423000814256826
  endloop
endfacet
facet normal -1 3.31999e-17 -2.75563e-16
  outer loop
    vertex -7.292700112611741e-17 -0.1428571428572049 0.247435829652679
    vertex -1.093905016891761e-16 -0.2142857142858074 0.3711537444790184
    vertex -1.046476589724988e-16 -0.07142857142859199 0.3711537444790465
  endloop
endfacet
facet normal -1 3.31999e-17 -2.75563e-16
  outer loop
    vertex -1.268826313857694e-16 0.2857142857144098 0.4948716593053579
    vertex -9.516197353932706e-17 0.2142857142858074 0.3711537444790184
    vertex -1.316254741023162e-16 0.1428571428572558 0.4948716593053992
  endloop
endfacet
facet normal -1 3.31999e-17 -2.75563e-16
  outer loop
    vertex -2.045532831585582e-16 6.417417265147662e-06 0.7423111940556242
    vertex -1.728318173819777e-16 -0.0714285714284465 0.6185895741318195
    vertex -2.092901461632802e-16 -0.1428560732875363 0.7422888497641619
  endloop
endfacet
facet normal -1 3.31999e-17 -2.75563e-16
  outer loop
    vertex -3.646350056305872e-17 -0.0714285714286025 0.1237179148263395
    vertex -7.292700112611741e-17 -0.1428571428572049 0.247435829652679
    vertex -6.818415840946313e-17 -2.202404925100154e-14 0.2474358296526953
  endloop
endfacet
facet normal -1 3.31999e-17 -2.75563e-16
  outer loop
    vertex -6.818415840946313e-17 -2.202404925100154e-14 0.2474358296526953
    vertex -7.292700112611741e-17 -0.1428571428572049 0.247435829652679
    vertex -1.046476589724988e-16 -0.07142857142859199 0.3711537444790465
  endloop
endfacet
facet normal -1 3.31999e-17 -2.75563e-16
  outer loop
    vertex -1.093905016891761e-16 -0.2142857142858074 0.3711537444790184
    vertex -1.458540022522348e-16 -0.2857142857144098 0.4948716593053579
    vertex -1.4111115953554e-16 -0.1428571428571907 0.4948716593054141
  endloop
endfacet
facet normal -1 3.31999e-17 -2.75563e-16
  outer loop
    vertex -1.093905016891761e-16 -0.2142857142858074 0.3711537444790184
    vertex -1.4111115953554e-16 -0.1428571428571907 0.4948716593054141
    vertex -1.046476589724988e-16 -0.07142857142859199 0.3711537444790465
  endloop
endfacet
facet normal -1 3.31999e-17 -2.75563e-16
  outer loop
    vertex -1.823175028152936e-16 -0.3571428571430124 0.6185895741316976
    vertex -2.187810033783523e-16 -0.4285714285716148 0.7423074889580369
    vertex -2.14006322040943e-16 -0.2857142857143379 0.7421919486962155
  endloop
endfacet
facet normal -1 3.31999e-17 -2.75563e-16
  outer loop
    vertex -1.586032892322118e-16 0.3571428571430124 0.6185895741316976
    vertex -1.268826313857694e-16 0.2857142857144098 0.4948716593053579
    vertex -1.63345791741769e-16 0.2142857142858694 0.6185883395429992
  endloop
endfacet
facet normal -1 3.31999e-17 -2.75563e-16
  outer loop
    vertex -1.950647485533485e-16 0.2857142857144713 0.7423000814256826
    vertex -1.586032892322118e-16 0.3571428571430124 0.6185895741316976
    vertex -1.63345791741769e-16 0.2142857142858694 0.6185883395429992
  endloop
endfacet
facet normal -1 3.31999e-17 -2.75563e-16
  outer loop
    vertex -1.680889746653576e-16 0.0714285714287235 0.6185895741317755
    vertex -2.045532831585582e-16 6.417417265147662e-06 0.7423111940556242
    vertex -1.998073721405948e-16 0.1428590027015432 0.7422995102941329
  endloop
endfacet
facet normal -1 3.31999e-17 -2.75563e-16
  outer loop
    vertex -1.63345791741769e-16 0.2142857142858694 0.6185883395429992
    vertex -1.680889746653576e-16 0.0714285714287235 0.6185895741317755
    vertex -1.998073721405948e-16 0.1428590027015432 0.7422995102941329
  endloop
endfacet
facet normal -1 3.31999e-17 -2.75563e-16
  outer loop
    vertex -1.950647485533485e-16 0.2857142857144713 0.7423000814256826
    vertex -1.63345791741769e-16 0.2142857142858694 0.6185883395429992
    vertex -1.998073721405948e-16 0.1428590027015432 0.7422995102941329
  endloop
endfacet
facet normal -1 3.31999e-17 -2.75563e-16
  outer loop
    vertex -4.203290343404523e-16 -0.2896790585465323 1.490445834813273
    vertex -3.876308613953637e-16 -0.3606417415942124 1.363236712287689
    vertex -4.244540928350291e-16 -0.4331676094298715 1.488127864275852
  endloop
endfacet
facet normal -1 3.31999e-17 -2.75563e-16
  outer loop
    vertex -2.917080045044698e-16 -0.57142857142882 0.9897433186107163
    vertex -3.281715050675284e-16 -0.6428571428574222 1.113461233437055
    vertex -3.233539696323496e-16 -0.5004091240774404 1.113140887099418
  endloop
endfacet
facet normal -1 3.31999e-17 -2.75563e-16
  outer loop
    vertex -2.045532831585582e-16 6.417417265147662e-06 0.7423111940556242
    vertex -2.092901461632802e-16 -0.1428560732875363 0.7422888497641619
    vertex -2.410338110272988e-16 -0.07148348026261647 0.8660835112531209
  endloop
endfacet
facet normal -1 3.31999e-17 -2.75563e-16
  outer loop
    vertex -2.045532831585582e-16 6.417417265147662e-06 0.7423111940556242
    vertex -2.362733918172108e-16 0.07143331307701428 0.8660269140185808
    vertex -1.998073721405948e-16 0.1428590027015432 0.7422995102941329
  endloop
endfacet
facet normal -1 3.31999e-17 -2.75563e-16
  outer loop
    vertex -2.045532831585582e-16 6.417417265147662e-06 0.7423111940556242
    vertex -2.410338110272988e-16 -0.07148348026261647 0.8660835112531209
    vertex -2.362733918172108e-16 0.07143331307701428 0.8660269140185808
  endloop
endfacet
facet normal -1 3.31999e-17 -2.75563e-16
  outer loop
    vertex -1.903239470786542e-16 0.4285714285716148 0.7423074889580369
    vertex -1.950647485533485e-16 0.2857142857144713 0.7423000814256826
    vertex -2.267919519617423e-16 0.3571364333461509 0.8660409757255512
  endloop
endfacet
facet normal -1 3.31999e-17 -2.75563e-16
  outer loop
    vertex -2.220446049250965e-16 0.5000000000002174 0.8660254037843765
    vertex -1.903239470786542e-16 0.4285714285716148 0.7423074889580369
    vertex -2.267919519617423e-16 0.3571364333461509 0.8660409757255512
  endloop
endfacet
facet normal -1 3.31999e-17 -2.75563e-16
  outer loop
    vertex -2.092901461632802e-16 -0.1428560732875363 0.7422888497641619
    vertex -2.14006322040943e-16 -0.2857142857143379 0.7421919486962155
    vertex -2.457255596832658e-16 -0.2144839817355393 0.8658808223829813
  endloop
endfacet
facet normal -1 3.31999e-17 -2.75563e-16
  outer loop
    vertex -2.821588461498722e-16 -0.2862754183260126 0.9894453741531408
    vertex -2.775536032176962e-16 -0.1434317756796669 0.9899430882186828
    vertex -2.457255596832658e-16 -0.2144839817355393 0.8658808223829813
  endloop
endfacet
facet normal -1 3.31999e-17 -2.75563e-16
  outer loop
    vertex -3.955354722170247e-16 0.4265690396434696 1.486765378403831
    vertex -3.58600366128055e-16 0.4990172810706458 1.361458888216773
    vertex -3.634433478212838e-16 0.3556021633445974 1.361755061029007
  endloop
endfacet
facet normal -1 3.31999e-17 -2.75563e-16
  outer loop
    vertex -1.950647485533485e-16 0.2857142857144713 0.7423000814256826
    vertex -1.998073721405948e-16 0.1428590027015432 0.7422995102941329
    vertex -2.315226612963942e-16 0.2142880581096033 0.8659980008050034
  endloop
endfacet
facet normal -1 3.31999e-17 -2.75563e-16
  outer loop
    vertex -2.410338110272988e-16 -0.07148348026261647 0.8660835112531209
    vertex -2.092901461632802e-16 -0.1428560732875363 0.7422888497641619
    vertex -2.457255596832658e-16 -0.2144839817355393 0.8658808223829813
  endloop
endfacet
facet normal -1 3.31999e-17 -2.75563e-16
  outer loop
    vertex -1.998073721405948e-16 0.1428590027015432 0.7422995102941329
    vertex -2.362733918172108e-16 0.07143331307701428 0.8660269140185808
    vertex -2.315226612963942e-16 0.2142880581096033 0.8659980008050034
  endloop
endfacet
facet normal -1 3.31999e-17 -2.75563e-16
  outer loop
    vertex -2.775536032176962e-16 -0.1434317756796669 0.9899430882186828
    vertex -2.410338110272988e-16 -0.07148348026261647 0.8660835112531209
    vertex -2.457255596832658e-16 -0.2144839817355393 0.8658808223829813
  endloop
endfacet
facet normal -1 3.31999e-17 -2.75563e-16
  outer loop
    vertex -2.267919519617423e-16 0.3571364333461509 0.8660409757255512
    vertex -1.950647485533485e-16 0.2857142857144713 0.7423000814256826
    vertex -2.315226612963942e-16 0.2142880581096033 0.8659980008050034
  endloop
endfacet
facet normal -1 3.31999e-17 -2.75563e-16
  outer loop
    vertex -2.504672627458246e-16 -0.3573724456465682 0.8658729130848895
    vertex -2.55244503941411e-16 -0.5000000000002174 0.8660254037843765
    vertex -2.868873412814311e-16 -0.4291895595316877 0.9893864405345865
  endloop
endfacet
facet normal -1 3.31999e-17 -2.75563e-16
  outer loop
    vertex -2.53765262771539e-16 0.57142857142882 0.9897433186107163
    vertex -2.220446049250965e-16 0.5000000000002174 0.8660254037843765
    vertex -2.585015882861286e-16 0.4286141029731667 0.9897248095360694
  endloop
endfacet
facet normal -1 3.31999e-17 -2.75563e-16
  outer loop
    vertex -2.728086626792145e-16 6.687595901211374e-05 0.9900127645003499
    vertex -2.410338110272988e-16 -0.07148348026261647 0.8660835112531209
    vertex -2.775536032176962e-16 -0.1434317756796669 0.9899430882186828
  endloop
endfacet
facet normal -1 3.31999e-17 -2.75563e-16
  outer loop
    vertex -3.784005598737303e-16 -0.07181522585613032 1.36453844597459
    vertex -3.462629981897756e-16 -0.1442226927656831 1.23918967694791
    vertex -3.832144702125064e-16 -0.2168636317696169 1.364532341780459
  endloop
endfacet
facet normal -1 3.31999e-17 -2.75563e-16
  outer loop
    vertex -3.281715050675284e-16 -0.6428571428574222 1.113461233437055
    vertex -3.64635005630587e-16 -0.7142857142860245 1.237179148263394
    vertex -3.598134926184294e-16 -0.5720315281550989 1.236821014554089
  endloop
endfacet
facet normal -1 3.31999e-17 -2.75563e-16
  outer loop
    vertex -3.414211834966953e-16 0.0003622117002338721 1.239038675303206
    vertex -3.094809593708855e-16 -0.0718641216661291 1.114427854320418
    vertex -3.462629981897756e-16 -0.1442226927656831 1.23918967694791
  endloop
endfacet
facet normal -1 3.31999e-17 -2.75563e-16
  outer loop
    vertex -2.220446049250965e-16 0.5000000000002174 0.8660254037843765
    vertex -2.267919519617423e-16 0.3571364333461509 0.8660409757255512
    vertex -2.585015882861286e-16 0.4286141029731667 0.9897248095360694
  endloop
endfacet
facet normal -1 3.31999e-17 -2.75563e-16
  outer loop
    vertex -3.58600366128055e-16 0.4990172810706458 1.361458888216773
    vertex -3.219919885163615e-16 0.5709867829800314 1.23728039554289
    vertex -3.267397481623817e-16 0.4282028007759917 1.237307053170469
  endloop
endfacet
facet normal -1 3.31999e-17 -2.75563e-16
  outer loop
    vertex -2.267919519617423e-16 0.3571364333461509 0.8660409757255512
    vertex -2.315226612963942e-16 0.2142880581096033 0.8659980008050034
    vertex -2.632651197588331e-16 0.2860494098593294 0.989835122090877
  endloop
endfacet
facet normal -1 3.31999e-17 -2.75563e-16
  outer loop
    vertex -3.219919885163615e-16 0.5709867829800314 1.23728039554289
    vertex -2.90212152304129e-16 0.4998630050435781 1.113384447912975
    vertex -3.267397481623817e-16 0.4282028007759917 1.237307053170469
  endloop
endfacet
facet normal -1 3.31999e-17 -2.75563e-16
  outer loop
    vertex -2.632651197588331e-16 0.2860494098593294 0.989835122090877
    vertex -2.679545673104364e-16 0.1429340966564915 0.9896102501181334
    vertex -2.997736961747496e-16 0.2148176980782301 1.113740331924696
  endloop
endfacet
facet normal -1 3.31999e-17 -2.75563e-16
  outer loop
    vertex -3.233539696323496e-16 -0.5004091240774404 1.113140887099418
    vertex -3.281715050675284e-16 -0.6428571428574222 1.113461233437055
    vertex -3.598134926184294e-16 -0.5720315281550989 1.236821014554089
  endloop
endfacet
facet normal -1 3.31999e-17 -2.75563e-16
  outer loop
    vertex -4.564033482560998e-16 -0.356902360117122 1.613258068844829
    vertex -4.244540928350291e-16 -0.4331676094298715 1.488127864275852
    vertex -4.691731769380165e-16 -0.5031369493515234 1.641980557772327
  endloop
endfacet
facet normal -1 3.31999e-17 -2.75563e-16
  outer loop
    vertex -2.854859206179812e-16 0.6428571428574222 1.113461233437055
    vertex -2.53765262771539e-16 0.57142857142882 0.9897433186107163
    vertex -2.90212152304129e-16 0.4998630050435781 1.113384447912975
  endloop
endfacet
facet normal -1 3.31999e-17 -2.75563e-16
  outer loop
    vertex -2.187810033783523e-16 -0.4285714285716148 0.7423074889580369
    vertex -2.55244503941411e-16 -0.5000000000002174 0.8660254037843765
    vertex -2.504672627458246e-16 -0.3573724456465682 0.8658729130848895
  endloop
endfacet
facet normal -1 3.31999e-17 -2.75563e-16
  outer loop
    vertex -2.362733918172108e-16 0.07143331307701428 0.8660269140185808
    vertex -2.410338110272988e-16 -0.07148348026261647 0.8660835112531209
    vertex -2.728086626792145e-16 6.687595901211374e-05 0.9900127645003499
  endloop
endfacet
facet normal -1 3.31999e-17 -2.75563e-16
  outer loop
    vertex -2.679545673104364e-16 0.1429340966564915 0.9896102501181334
    vertex -3.046636441793763e-16 0.07215866991150222 1.114298036254569
    vertex -2.997736961747496e-16 0.2148176980782301 1.113740331924696
  endloop
endfacet
facet normal -1 3.31999e-17 -2.75563e-16
  outer loop
    vertex -2.728086626792145e-16 6.687595901211374e-05 0.9900127645003499
    vertex -3.094809593708855e-16 -0.0718641216661291 1.114427854320418
    vertex -3.046636441793763e-16 0.07215866991150222 1.114298036254569
  endloop
endfacet
facet normal -1 3.31999e-17 -2.75563e-16
  outer loop
    vertex -3.046636441793763e-16 0.07215866991150222 1.114298036254569
    vertex -3.414211834966953e-16 0.0003622117002338721 1.239038675303206
    vertex -3.365682115953915e-16 0.1440164398249604 1.23873505676343
  endloop
endfacet
facet normal -1 3.31999e-17 -2.75563e-16
  outer loop
    vertex -2.917080045044698e-16 -0.57142857142882 0.9897433186107163
    vertex -3.233539696323496e-16 -0.5004091240774404 1.113140887099418
    vertex -2.868873412814311e-16 -0.4291895595316877 0.9893864405345865
  endloop
endfacet
facet normal -1 3.31999e-17 -2.75563e-16
  outer loop
    vertex -3.172065784644235e-16 0.7142857142860245 1.237179148263394
    vertex -2.854859206179812e-16 0.6428571428574222 1.113461233437055
    vertex -3.219919885163615e-16 0.5709867829800314 1.23728039554289
  endloop
endfacet
facet normal -1 3.31999e-17 -2.75563e-16
  outer loop
    vertex -4.155035342798455e-16 -0.1441881021084062 1.490463199267118
    vertex -3.832144702125064e-16 -0.2168636317696169 1.364532341780459
    vertex -4.203290343404523e-16 -0.2896790585465323 1.490445834813273
  endloop
endfacet
facet normal -1 3.31999e-17 -2.75563e-16
  outer loop
    vertex -3.955354722170247e-16 0.4265690396434696 1.486765378403831
    vertex -3.634433478212838e-16 0.3556021633445974 1.361755061029007
    vertex -4.00421044820832e-16 0.2832064693781345 1.48722244176267
  endloop
endfacet
facet normal -1 3.31999e-17 -2.75563e-16
  outer loop
    vertex -3.507721119876617e-16 -0.2877770193034504 1.238257493197834
    vertex -3.140841653719119e-16 -0.215406953274351 1.113838509903592
    vertex -3.186972428178329e-16 -0.3582325369124206 1.113371402527388
  endloop
endfacet
facet normal -1 3.31999e-17 -2.75563e-16
  outer loop
    vertex -2.457255596832658e-16 -0.2144839817355393 0.8658808223829813
    vertex -2.14006322040943e-16 -0.2857142857143379 0.7421919486962155
    vertex -2.504672627458246e-16 -0.3573724456465682 0.8658729130848895
  endloop
endfacet
facet normal -1 3.31999e-17 -2.75563e-16
  outer loop
    vertex -2.728086626792145e-16 6.687595901211374e-05 0.9900127645003499
    vertex -2.775536032176962e-16 -0.1434317756796669 0.9899430882186828
    vertex -3.094809593708855e-16 -0.0718641216661291 1.114427854320418
  endloop
endfacet
facet normal -1 3.31999e-17 -2.75563e-16
  outer loop
    vertex -3.489272363108657e-16 0.7857142857146266 1.360897063089733
    vertex -3.172065784644235e-16 0.7142857142860245 1.237179148263394
    vertex -3.537348161293998e-16 0.6427615811205295 1.361120476476571
  endloop
endfacet
facet normal -1 3.31999e-17 -2.75563e-16
  outer loop
    vertex -3.414211834966953e-16 0.0003622117002338721 1.239038675303206
    vertex -3.462629981897756e-16 -0.1442226927656831 1.23918967694791
    vertex -3.784005598737303e-16 -0.07181522585613032 1.36453844597459
  endloop
endfacet
facet normal -1 3.31999e-17 -2.75563e-16
  outer loop
    vertex -2.267919519617423e-16 0.3571364333461509 0.8660409757255512
    vertex -2.632651197588331e-16 0.2860494098593294 0.989835122090877
    vertex -2.585015882861286e-16 0.4286141029731667 0.9897248095360694
  endloop
endfacet
facet normal -1 3.31999e-17 -2.75563e-16
  outer loop
    vertex -3.046636441793763e-16 0.07215866991150222 1.114298036254569
    vertex -3.094809593708855e-16 -0.0718641216661291 1.114427854320418
    vertex -3.414211834966953e-16 0.0003622117002338721 1.239038675303206
  endloop
endfacet
facet normal -1 3.31999e-17 -2.75563e-16
  outer loop
    vertex -3.634433478212838e-16 0.3556021633445974 1.361755061029007
    vertex -3.58600366128055e-16 0.4990172810706458 1.361458888216773
    vertex -3.267397481623817e-16 0.4282028007759917 1.237307053170469
  endloop
endfacet
facet normal -1 3.31999e-17 -2.75563e-16
  outer loop
    vertex -3.64635005630587e-16 -0.7142857142860245 1.237179148263394
    vertex -4.010985061936455e-16 -0.7857142857146266 1.360897063089733
    vertex -3.963117153025956e-16 -0.6432062247178562 1.360695520583705
  endloop
endfacet
facet normal -1 3.31999e-17 -2.75563e-16
  outer loop
    vertex -3.414211834966953e-16 0.0003622117002338721 1.239038675303206
    vertex -3.784005598737303e-16 -0.07181522585613032 1.36453844597459
    vertex -3.735110890301601e-16 0.07276935360200831 1.364214464134808
  endloop
endfacet
facet normal -1 3.31999e-17 -2.75563e-16
  outer loop
    vertex -4.155035342798455e-16 -0.1441881021084062 1.490463199267118
    vertex -4.527330346807339e-16 -0.2168713531173729 1.616809713050345
    vertex -4.475777627727583e-16 -0.07248854326666798 1.615496847363815
  endloop
endfacet
facet normal -1 3.31999e-17 -2.75563e-16
  outer loop
    vertex -2.90212152304129e-16 0.4998630050435781 1.113384447912975
    vertex -2.53765262771539e-16 0.57142857142882 0.9897433186107163
    vertex -2.585015882861286e-16 0.4286141029731667 0.9897248095360694
  endloop
endfacet
facet normal -1 3.31999e-17 -2.75563e-16
  outer loop
    vertex -3.784005598737303e-16 -0.07181522585613032 1.36453844597459
    vertex -3.832144702125064e-16 -0.2168636317696169 1.364532341780459
    vertex -4.155035342798455e-16 -0.1441881021084062 1.490463199267118
  endloop
endfacet
facet normal -1 3.31999e-17 -2.75563e-16
  outer loop
    vertex -2.315226612963942e-16 0.2142880581096033 0.8659980008050034
    vertex -2.362733918172108e-16 0.07143331307701428 0.8660269140185808
    vertex -2.679545673104364e-16 0.1429340966564915 0.9896102501181334
  endloop
endfacet
facet normal -1 3.31999e-17 -2.75563e-16
  outer loop
    vertex -2.728086626792145e-16 6.687595901211374e-05 0.9900127645003499
    vertex -3.046636441793763e-16 0.07215866991150222 1.114298036254569
    vertex -2.679545673104364e-16 0.1429340966564915 0.9896102501181334
  endloop
endfacet
facet normal -1 3.31999e-17 -2.75563e-16
  outer loop
    vertex -4.203290343404523e-16 -0.2896790585465323 1.490445834813273
    vertex -4.244540928350291e-16 -0.4331676094298715 1.488127864275852
    vertex -4.564033482560998e-16 -0.356902360117122 1.613258068844829
  endloop
endfacet
facet normal -1 3.31999e-17 -2.75563e-16
  outer loop
    vertex -4.151969717099843e-16 0.7905916924976233 1.601973208654937
    vertex -4.231506611644188e-16 0.654606879551067 1.61445314047891
    vertex -4.497968622381063e-16 0.7495312597468268 1.722586966132461
  endloop
endfacet
facet normal -1 3.31999e-17 -2.75563e-16
  outer loop
    vertex -2.14006322040943e-16 -0.2857142857143379 0.7421919486962155
    vertex -2.187810033783523e-16 -0.4285714285716148 0.7423074889580369
    vertex -2.504672627458246e-16 -0.3573724456465682 0.8658729130848895
  endloop
endfacet
facet normal -1 3.31999e-17 -2.75563e-16
  outer loop
    vertex -2.55244503941411e-16 -0.5000000000002174 0.8660254037843765
    vertex -2.917080045044698e-16 -0.57142857142882 0.9897433186107163
    vertex -2.868873412814311e-16 -0.4291895595316877 0.9893864405345865
  endloop
endfacet
facet normal -1 3.31999e-17 -2.75563e-16
  outer loop
    vertex -2.821588461498722e-16 -0.2862754183260126 0.9894453741531408
    vertex -2.457255596832658e-16 -0.2144839817355393 0.8658808223829813
    vertex -2.504672627458246e-16 -0.3573724456465682 0.8658729130848895
  endloop
endfacet
facet normal -1 3.31999e-17 -2.75563e-16
  outer loop
    vertex -3.414211834966953e-16 0.0003622117002338721 1.239038675303206
    vertex -3.735110890301601e-16 0.07276935360200831 1.364214464134808
    vertex -3.365682115953915e-16 0.1440164398249604 1.23873505676343
  endloop
endfacet
facet normal -1 3.31999e-17 -2.75563e-16
  outer loop
    vertex -2.821588461498722e-16 -0.2862754183260126 0.9894453741531408
    vertex -2.504672627458246e-16 -0.3573724456465682 0.8658729130848895
    vertex -2.868873412814311e-16 -0.4291895595316877 0.9893864405345865
  endloop
endfacet
facet normal -1 3.31999e-17 -2.75563e-16
  outer loop
    vertex -3.806478941573079e-16 0.8571428571432287 1.484614977916072
    vertex -3.489272363108657e-16 0.7857142857146266 1.360897063089733
    vertex -3.853113365834633e-16 0.7146238738310184 1.484367581028213
  endloop
endfacet
facet normal -1 3.31999e-17 -2.75563e-16
  outer loop
    vertex -3.876308613953637e-16 -0.3606417415942124 1.363236712287689
    vertex -3.507721119876617e-16 -0.2877770193034504 1.238257493197834
    vertex -3.552601012228538e-16 -0.4302721437026383 1.237376262738202
  endloop
endfacet
facet normal -1 3.31999e-17 -2.75563e-16
  outer loop
    vertex -4.324986259750875e-16 0.3615488643128064 1.613068587010573
    vertex -4.00421044820832e-16 0.2832064693781345 1.48722244176267
    vertex -4.36945643405009e-16 0.2117355087501153 1.611156970230832
  endloop
endfacet
facet normal -1 3.31999e-17 -2.75563e-16
  outer loop
    vertex -4.155035342798455e-16 -0.1441881021084062 1.490463199267118
    vertex -4.203290343404523e-16 -0.2896790585465323 1.490445834813273
    vertex -4.527330346807339e-16 -0.2168713531173729 1.616809713050345
  endloop
endfacet
facet normal -1 3.31999e-17 -2.75563e-16
  outer loop
    vertex -2.362733918172108e-16 0.07143331307701428 0.8660269140185808
    vertex -2.728086626792145e-16 6.687595901211374e-05 0.9900127645003499
    vertex -2.679545673104364e-16 0.1429340966564915 0.9896102501181334
  endloop
endfacet
facet normal -1 3.31999e-17 -2.75563e-16
  outer loop
    vertex -2.632651197588331e-16 0.2860494098593294 0.989835122090877
    vertex -2.315226612963942e-16 0.2142880581096033 0.8659980008050034
    vertex -2.679545673104364e-16 0.1429340966564915 0.9896102501181334
  endloop
endfacet
facet normal -1 3.31999e-17 -2.75563e-16
  outer loop
    vertex -4.010985061936455e-16 -0.7857142857146266 1.360897063089733
    vertex -4.37562006756704e-16 -0.8571428571432287 1.484614977916072
    vertex -4.324472645973171e-16 -0.71626089038368 1.483027409568273
  endloop
endfacet
facet normal -1 3.31999e-17 -2.75563e-16
  outer loop
    vertex -2.854859206179812e-16 0.6428571428574222 1.113461233437055
    vertex -2.90212152304129e-16 0.4998630050435781 1.113384447912975
    vertex -3.219919885163615e-16 0.5709867829800314 1.23728039554289
  endloop
endfacet
facet normal -1 3.31999e-17 -2.75563e-16
  outer loop
    vertex -3.955354722170247e-16 0.4265690396434696 1.486765378403831
    vertex -4.00421044820832e-16 0.2832064693781345 1.48722244176267
    vertex -4.324986259750875e-16 0.3615488643128064 1.613068587010573
  endloop
endfacet
facet normal -1 3.31999e-17 -2.75563e-16
  outer loop
    vertex -4.123685520037501e-16 0.9285714285718309 1.608332892742411
    vertex -3.806478941573079e-16 0.8571428571432287 1.484614977916072
    vertex -4.151969717099843e-16 0.7905916924976233 1.601973208654937
  endloop
endfacet
facet normal -1 3.31999e-17 -2.75563e-16
  outer loop
    vertex -4.244540928350291e-16 -0.4331676094298715 1.488127864275852
    vertex -3.876308613953637e-16 -0.3606417415942124 1.363236712287689
    vertex -3.918571523054259e-16 -0.5023256984341692 1.361503525477152
  endloop
endfacet
facet normal -1 3.31999e-17 -2.75563e-16
  outer loop
    vertex -3.905497426486581e-16 0.5708329676974913 1.486053447816271
    vertex -3.58600366128055e-16 0.4990172810706458 1.361458888216773
    vertex -3.955354722170247e-16 0.4265690396434696 1.486765378403831
  endloop
endfacet
facet normal -1 3.31999e-17 -2.75563e-16
  outer loop
    vertex -3.64635005630587e-16 -0.7142857142860245 1.237179148263394
    vertex -3.963117153025956e-16 -0.6432062247178562 1.360695520583705
    vertex -3.598134926184294e-16 -0.5720315281550989 1.236821014554089
  endloop
endfacet
facet normal -1 3.31999e-17 -2.75563e-16
  outer loop
    vertex -3.537348161293998e-16 0.6427615811205295 1.361120476476571
    vertex -3.58600366128055e-16 0.4990172810706458 1.361458888216773
    vertex -3.905497426486581e-16 0.5708329676974913 1.486053447816271
  endloop
endfacet
facet normal -1 3.31999e-17 -2.75563e-16
  outer loop
    vertex -4.527330346807339e-16 -0.2168713531173729 1.616809713050345
    vertex -4.203290343404523e-16 -0.2896790585465323 1.490445834813273
    vertex -4.564033482560998e-16 -0.356902360117122 1.613258068844829
  endloop
endfacet
facet normal -1 3.31999e-17 -2.75563e-16
  outer loop
    vertex -3.537348161293998e-16 0.6427615811205295 1.361120476476571
    vertex -3.219919885163615e-16 0.5709867829800314 1.23728039554289
    vertex -3.58600366128055e-16 0.4990172810706458 1.361458888216773
  endloop
endfacet
facet normal -1 3.31999e-17 -2.75563e-16
  outer loop
    vertex -4.691731769380165e-16 -0.5031369493515234 1.641980557772327
    vertex -4.244540928350291e-16 -0.4331676094298715 1.488127864275852
    vertex -4.297085469990273e-16 -0.5741966246272908 1.490204721874511
  endloop
endfacet
facet normal -1 3.31999e-17 -2.75563e-16
  outer loop
    vertex -3.537348161293998e-16 0.6427615811205295 1.361120476476571
    vertex -3.172065784644235e-16 0.7142857142860245 1.237179148263394
    vertex -3.219919885163615e-16 0.5709867829800314 1.23728039554289
  endloop
endfacet
facet normal -1 3.31999e-17 -2.75563e-16
  outer loop
    vertex -4.37562006756704e-16 -0.8571428571432287 1.484614977916072
    vertex -4.740255073197626e-16 -0.9285714285718309 1.608332892742411
    vertex -4.680308288574733e-16 -0.7897846562743867 1.603299663826992
  endloop
endfacet
facet normal -1 3.31999e-17 -2.75563e-16
  outer loop
    vertex -3.046636441793763e-16 0.07215866991150222 1.114298036254569
    vertex -3.365682115953915e-16 0.1440164398249604 1.23873505676343
    vertex -2.997736961747496e-16 0.2148176980782301 1.113740331924696
  endloop
endfacet
facet normal -1 3.31999e-17 -2.75563e-16
  outer loop
    vertex -4.796131720368041e-16 0.0007834729931134321 1.740579073095531
    vertex -4.749044901903103e-16 0.143427809225584 1.74067740165237
    vertex -4.41934702620146e-16 0.06922686280396451 1.612092460717602
  endloop
endfacet
facet normal -1 3.31999e-17 -2.75563e-16
  outer loop
    vertex -3.905497426486581e-16 0.5708329676974913 1.486053447816271
    vertex -3.955354722170247e-16 0.4265690396434696 1.486765378403831
    vertex -4.292285293180297e-16 0.5114365009092204 1.619260121322803
  endloop
endfacet
facet normal -1 3.31999e-17 -2.75563e-16
  outer loop
    vertex -4.527330346807339e-16 -0.2168713531173729 1.616809713050345
    vertex -4.564033482560998e-16 -0.356902360117122 1.613258068844829
    vertex -4.879545222399025e-16 -0.2805146841246791 1.736958412037929
  endloop
endfacet
facet normal -1 3.31999e-17 -2.75563e-16
  outer loop
    vertex -3.507721119876617e-16 -0.2877770193034504 1.238257493197834
    vertex -3.186972428178329e-16 -0.3582325369124206 1.113371402527388
    vertex -3.552601012228538e-16 -0.4302721437026383 1.237376262738202
  endloop
endfacet
facet normal -1 3.31999e-17 -2.75563e-16
  outer loop
    vertex -4.155035342798455e-16 -0.1441881021084062 1.490463199267118
    vertex -4.475777627727583e-16 -0.07248854326666798 1.615496847363815
    vertex -4.103246312310287e-16 -0.0009859676856741606 1.488922329650997
  endloop
endfacet
facet normal -1 3.31999e-17 -2.75563e-16
  outer loop
    vertex -3.489272363108657e-16 0.7857142857146266 1.360897063089733
    vertex -3.537348161293998e-16 0.6427615811205295 1.361120476476571
    vertex -3.853113365834633e-16 0.7146238738310184 1.484367581028213
  endloop
endfacet
facet normal -1 3.31999e-17 -2.75563e-16
  outer loop
    vertex -3.140841653719119e-16 -0.215406953274351 1.113838509903592
    vertex -2.821588461498722e-16 -0.2862754183260126 0.9894453741531408
    vertex -3.186972428178329e-16 -0.3582325369124206 1.113371402527388
  endloop
endfacet
facet normal -1 3.31999e-17 -2.75563e-16
  outer loop
    vertex -3.735110890301601e-16 0.07276935360200831 1.364214464134808
    vertex -3.784005598737303e-16 -0.07181522585613032 1.36453844597459
    vertex -4.103246312310287e-16 -0.0009859676856741606 1.488922329650997
  endloop
endfacet
facet normal -1 3.31999e-17 -2.75563e-16
  outer loop
    vertex -3.955354722170247e-16 0.4265690396434696 1.486765378403831
    vertex -4.324986259750875e-16 0.3615488643128064 1.613068587010573
    vertex -4.292285293180297e-16 0.5114365009092204 1.619260121322803
  endloop
endfacet
facet normal -1 3.31999e-17 -2.75563e-16
  outer loop
    vertex -2.868873412814311e-16 -0.4291895595316877 0.9893864405345865
    vertex -3.233539696323496e-16 -0.5004091240774404 1.113140887099418
    vertex -3.186972428178329e-16 -0.3582325369124206 1.113371402527388
  endloop
endfacet
facet normal -1 3.31999e-17 -2.75563e-16
  outer loop
    vertex -3.784005598737303e-16 -0.07181522585613032 1.36453844597459
    vertex -4.155035342798455e-16 -0.1441881021084062 1.490463199267118
    vertex -4.103246312310287e-16 -0.0009859676856741606 1.488922329650997
  endloop
endfacet
facet normal -1 3.31999e-17 -2.75563e-16
  outer loop
    vertex -3.963117153025956e-16 -0.6432062247178562 1.360695520583705
    vertex -4.010985061936455e-16 -0.7857142857146266 1.360897063089733
    vertex -4.324472645973171e-16 -0.71626089038368 1.483027409568273
  endloop
endfacet
facet normal -1 3.31999e-17 -2.75563e-16
  outer loop
    vertex -2.585015882861286e-16 0.4286141029731667 0.9897248095360694
    vertex -2.632651197588331e-16 0.2860494098593294 0.989835122090877
    vertex -2.949772694300317e-16 0.3572266348851217 1.11349187903066
  endloop
endfacet
facet normal -1 3.31999e-17 -2.75563e-16
  outer loop
    vertex -2.632651197588331e-16 0.2860494098593294 0.989835122090877
    vertex -2.997736961747496e-16 0.2148176980782301 1.113740331924696
    vertex -2.949772694300317e-16 0.3572266348851217 1.11349187903066
  endloop
endfacet
facet normal -1 3.31999e-17 -2.75563e-16
  outer loop
    vertex -4.151969717099843e-16 0.7905916924976233 1.601973208654937
    vertex -3.806478941573079e-16 0.8571428571432287 1.484614977916072
    vertex -3.853113365834633e-16 0.7146238738310184 1.484367581028213
  endloop
endfacet
facet normal -1 3.31999e-17 -2.75563e-16
  outer loop
    vertex -2.821588461498722e-16 -0.2862754183260126 0.9894453741531408
    vertex -2.868873412814311e-16 -0.4291895595316877 0.9893864405345865
    vertex -3.186972428178329e-16 -0.3582325369124206 1.113371402527388
  endloop
endfacet
facet normal -1 3.31999e-17 -2.75563e-16
  outer loop
    vertex -3.186972428178329e-16 -0.3582325369124206 1.113371402527388
    vertex -3.233539696323496e-16 -0.5004091240774404 1.113140887099418
    vertex -3.552601012228538e-16 -0.4302721437026383 1.237376262738202
  endloop
endfacet
facet normal -1 3.31999e-17 -2.75563e-16
  outer loop
    vertex -4.37562006756704e-16 -0.8571428571432287 1.484614977916072
    vertex -4.680308288574733e-16 -0.7897846562743867 1.603299663826992
    vertex -4.324472645973171e-16 -0.71626089038368 1.483027409568273
  endloop
endfacet
facet normal -1 3.31999e-17 -2.75563e-16
  outer loop
    vertex -2.90212152304129e-16 0.4998630050435781 1.113384447912975
    vertex -2.585015882861286e-16 0.4286141029731667 0.9897248095360694
    vertex -2.949772694300317e-16 0.3572266348851217 1.11349187903066
  endloop
endfacet
facet normal -1 3.31999e-17 -2.75563e-16
  outer loop
    vertex -4.527330346807339e-16 -0.2168713531173729 1.616809713050345
    vertex -4.879545222399025e-16 -0.2805146841246791 1.736958412037929
    vertex -4.844414053898064e-16 -0.1417422231828905 1.740928882882468
  endloop
endfacet
facet normal -1 3.31999e-17 -2.75563e-16
  outer loop
    vertex -3.267397481623817e-16 0.4282028007759917 1.237307053170469
    vertex -2.90212152304129e-16 0.4998630050435781 1.113384447912975
    vertex -2.949772694300317e-16 0.3572266348851217 1.11349187903066
  endloop
endfacet
facet normal -1 3.31999e-17 -2.75563e-16
  outer loop
    vertex -3.537348161293998e-16 0.6427615811205295 1.361120476476571
    vertex -3.905497426486581e-16 0.5708329676974913 1.486053447816271
    vertex -3.853113365834633e-16 0.7146238738310184 1.484367581028213
  endloop
endfacet
facet normal -1 3.31999e-17 -2.75563e-16
  outer loop
    vertex -4.684727146011314e-16 -0.6580697649255084 1.620772281392712
    vertex -4.680308288574733e-16 -0.7897846562743867 1.603299663826992
    vertex -5.005762736392614e-16 -0.7509924035728939 1.726078644344743
  endloop
endfacet
facet normal -1 3.31999e-17 -2.75563e-16
  outer loop
    vertex -4.151969717099843e-16 0.7905916924976233 1.601973208654937
    vertex -3.853113365834633e-16 0.7146238738310184 1.484367581028213
    vertex -4.231506611644188e-16 0.654606879551067 1.61445314047891
  endloop
endfacet
facet normal -1 3.31999e-17 -2.75563e-16
  outer loop
    vertex -4.475777627727583e-16 -0.07248854326666798 1.615496847363815
    vertex -4.527330346807339e-16 -0.2168713531173729 1.616809713050345
    vertex -4.844414053898064e-16 -0.1417422231828905 1.740928882882468
  endloop
endfacet
facet normal -1 3.31999e-17 -2.75563e-16
  outer loop
    vertex -3.876308613953637e-16 -0.3606417415942124 1.363236712287689
    vertex -3.552601012228538e-16 -0.4302721437026383 1.237376262738202
    vertex -3.918571523054259e-16 -0.5023256984341692 1.361503525477152
  endloop
endfacet
facet normal -1 3.31999e-17 -2.75563e-16
  outer loop
    vertex -3.853113365834633e-16 0.7146238738310184 1.484367581028213
    vertex -3.905497426486581e-16 0.5708329676974913 1.486053447816271
    vertex -4.231506611644188e-16 0.654606879551067 1.61445314047891
  endloop
endfacet
facet normal -1 3.31999e-17 -2.75563e-16
  outer loop
    vertex -3.233539696323496e-16 -0.5004091240774404 1.113140887099418
    vertex -3.598134926184294e-16 -0.5720315281550989 1.236821014554089
    vertex -3.552601012228538e-16 -0.4302721437026383 1.237376262738202
  endloop
endfacet
facet normal -1 3.31999e-17 -2.75563e-16
  outer loop
    vertex -2.949772694300317e-16 0.3572266348851217 1.11349187903066
    vertex -2.997736961747496e-16 0.2148176980782301 1.113740331924696
    vertex -3.314855050321954e-16 0.2857031886953926 1.237360703838829
  endloop
endfacet
facet normal -1 3.31999e-17 -2.75563e-16
  outer loop
    vertex -4.244540928350291e-16 -0.4331676094298715 1.488127864275852
    vertex -3.918571523054259e-16 -0.5023256984341692 1.361503525477152
    vertex -4.297085469990273e-16 -0.5741966246272908 1.490204721874511
  endloop
endfacet
facet normal -1 3.31999e-17 -2.75563e-16
  outer loop
    vertex -3.267397481623817e-16 0.4282028007759917 1.237307053170469
    vertex -2.949772694300317e-16 0.3572266348851217 1.11349187903066
    vertex -3.314855050321954e-16 0.2857031886953926 1.237360703838829
  endloop
endfacet
facet normal -1 3.31999e-17 -2.75563e-16
  outer loop
    vertex -4.691731769380165e-16 -0.5031369493515234 1.641980557772327
    vertex -4.297085469990273e-16 -0.5741966246272908 1.490204721874511
    vertex -4.684727146011314e-16 -0.6580697649255084 1.620772281392712
  endloop
endfacet
facet normal -1 3.31999e-17 -2.75563e-16
  outer loop
    vertex -3.905497426486581e-16 0.5708329676974913 1.486053447816271
    vertex -4.292285293180297e-16 0.5114365009092204 1.619260121322803
    vertex -4.231506611644188e-16 0.654606879551067 1.61445314047891
  endloop
endfacet
facet normal -1 3.31999e-17 -2.75563e-16
  outer loop
    vertex -3.634433478212838e-16 0.3556021633445974 1.361755061029007
    vertex -3.267397481623817e-16 0.4282028007759917 1.237307053170469
    vertex -3.314855050321954e-16 0.2857031886953926 1.237360703838829
  endloop
endfacet
facet normal -1 3.31999e-17 -2.75563e-16
  outer loop
    vertex -3.552601012228538e-16 -0.4302721437026383 1.237376262738202
    vertex -3.598134926184294e-16 -0.5720315281550989 1.236821014554089
    vertex -3.918571523054259e-16 -0.5023256984341692 1.361503525477152
  endloop
endfacet
facet normal -1 3.31999e-17 -2.75563e-16
  outer loop
    vertex -4.796131720368041e-16 0.0007834729931134321 1.740579073095531
    vertex -5.170078401322985e-16 -0.06988692823595599 1.867767478235124
    vertex -5.123772498971773e-16 0.07402597524550747 1.868302033418556
  endloop
endfacet
facet normal -1 3.31999e-17 -2.75563e-16
  outer loop
    vertex -4.00421044820832e-16 0.2832064693781345 1.48722244176267
    vertex -3.634433478212838e-16 0.3556021633445974 1.361755061029007
    vertex -3.682565995995583e-16 0.2137264769807975 1.362128817011569
  endloop
endfacet
facet normal -1 3.31999e-17 -2.75563e-16
  outer loop
    vertex -2.997736961747496e-16 0.2148176980782301 1.113740331924696
    vertex -3.365682115953915e-16 0.1440164398249604 1.23873505676343
    vertex -3.314855050321954e-16 0.2857031886953926 1.237360703838829
  endloop
endfacet
facet normal -1 3.31999e-17 -2.75563e-16
  outer loop
    vertex -3.634433478212838e-16 0.3556021633445974 1.361755061029007
    vertex -3.314855050321954e-16 0.2857031886953926 1.237360703838829
    vertex -3.682565995995583e-16 0.2137264769807975 1.362128817011569
  endloop
endfacet
facet normal -1 3.31999e-17 -2.75563e-16
  outer loop
    vertex -5.052443209561307e-16 0.2190128482382467 1.859885158014361
    vertex -4.991393478894273e-16 0.3678311545529392 1.855660278969058
    vertex -4.688959082659058e-16 0.2899378523169647 1.736524219593621
  endloop
endfacet
facet normal -1 3.31999e-17 -2.75563e-16
  outer loop
    vertex -3.598134926184294e-16 -0.5720315281550989 1.236821014554089
    vertex -3.963117153025956e-16 -0.6432062247178562 1.360695520583705
    vertex -3.918571523054259e-16 -0.5023256984341692 1.361503525477152
  endloop
endfacet
facet normal -1 3.31999e-17 -2.75563e-16
  outer loop
    vertex -4.00421044820832e-16 0.2832064693781345 1.48722244176267
    vertex -3.682565995995583e-16 0.2137264769807975 1.362128817011569
    vertex -4.052033418603191e-16 0.141528660158766 1.487507705320726
  endloop
endfacet
facet normal -1 3.31999e-17 -2.75563e-16
  outer loop
    vertex -3.314855050321954e-16 0.2857031886953926 1.237360703838829
    vertex -3.365682115953915e-16 0.1440164398249604 1.23873505676343
    vertex -3.682565995995583e-16 0.2137264769807975 1.362128817011569
  endloop
endfacet
facet normal -1 3.31999e-17 -2.75563e-16
  outer loop
    vertex -4.475777627727583e-16 -0.07248854326666798 1.615496847363815
    vertex -4.844414053898064e-16 -0.1417422231828905 1.740928882882468
    vertex -4.796131720368041e-16 0.0007834729931134321 1.740579073095531
  endloop
endfacet
facet normal -1 3.31999e-17 -2.75563e-16
  outer loop
    vertex -4.749044901903103e-16 0.143427809225584 1.74067740165237
    vertex -4.36945643405009e-16 0.2117355087501153 1.611156970230832
    vertex -4.41934702620146e-16 0.06922686280396451 1.612092460717602
  endloop
endfacet
facet normal -1 3.31999e-17 -2.75563e-16
  outer loop
    vertex -4.36945643405009e-16 0.2117355087501153 1.611156970230832
    vertex -4.00421044820832e-16 0.2832064693781345 1.48722244176267
    vertex -4.052033418603191e-16 0.141528660158766 1.487507705320726
  endloop
endfacet
facet normal -1 3.31999e-17 -2.75563e-16
  outer loop
    vertex -3.365682115953915e-16 0.1440164398249604 1.23873505676343
    vertex -3.735110890301601e-16 0.07276935360200831 1.364214464134808
    vertex -3.682565995995583e-16 0.2137264769807975 1.362128817011569
  endloop
endfacet
facet normal -1 3.31999e-17 -2.75563e-16
  outer loop
    vertex -4.475777627727583e-16 -0.07248854326666798 1.615496847363815
    vertex -4.796131720368041e-16 0.0007834729931134321 1.740579073095531
    vertex -4.41934702620146e-16 0.06922686280396451 1.612092460717602
  endloop
endfacet
facet normal -1 3.31999e-17 -2.75563e-16
  outer loop
    vertex -3.682565995995583e-16 0.2137264769807975 1.362128817011569
    vertex -3.735110890301601e-16 0.07276935360200831 1.364214464134808
    vertex -4.052033418603191e-16 0.141528660158766 1.487507705320726
  endloop
endfacet
facet normal -1 3.31999e-17 -2.75563e-16
  outer loop
    vertex -4.844414053898064e-16 -0.1417422231828905 1.740928882882468
    vertex -5.170078401322985e-16 -0.06988692823595599 1.867767478235124
    vertex -4.796131720368041e-16 0.0007834729931134321 1.740579073095531
  endloop
endfacet
facet normal -1 3.31999e-17 -2.75563e-16
  outer loop
    vertex -4.844414053898064e-16 -0.1417422231828905 1.740928882882468
    vertex -4.879545222399025e-16 -0.2805146841246791 1.736958412037929
    vertex -5.204498231376744e-16 -0.2152307838944897 1.862747144054608
  endloop
endfacet
facet normal -1 3.31999e-17 -2.75563e-16
  outer loop
    vertex -3.918571523054259e-16 -0.5023256984341692 1.361503525477152
    vertex -3.963117153025956e-16 -0.6432062247178562 1.360695520583705
    vertex -4.297085469990273e-16 -0.5741966246272908 1.490204721874511
  endloop
endfacet
facet normal -1 3.31999e-17 -2.75563e-16
  outer loop
    vertex -4.796131720368041e-16 0.0007834729931134321 1.740579073095531
    vertex -5.123772498971773e-16 0.07402597524550747 1.868302033418556
    vertex -4.749044901903103e-16 0.143427809225584 1.74067740165237
  endloop
endfacet
facet normal -1 3.31999e-17 -2.75563e-16
  outer loop
    vertex -3.963117153025956e-16 -0.6432062247178562 1.360695520583705
    vertex -4.324472645973171e-16 -0.71626089038368 1.483027409568273
    vertex -4.297085469990273e-16 -0.5741966246272908 1.490204721874511
  endloop
endfacet
facet normal -1 3.31999e-17 -2.75563e-16
  outer loop
    vertex -3.735110890301601e-16 0.07276935360200831 1.364214464134808
    vertex -4.103246312310287e-16 -0.0009859676856741606 1.488922329650997
    vertex -4.052033418603191e-16 0.141528660158766 1.487507705320726
  endloop
endfacet
facet normal -1 1.37226e-17 2.88324e-16
  outer loop
    vertex -4.815864419516949e-16 -0.1494601871728389 1.994407594362361
    vertex -5.170078401322985e-16 -0.06988692823595599 1.867767478235124
    vertex -5.204498231376744e-16 -0.2152307838944897 1.862747144054608
  endloop
endfacet
facet normal -1 3.31999e-17 -2.75563e-16
  outer loop
    vertex -4.297085469990273e-16 -0.5741966246272908 1.490204721874511
    vertex -4.324472645973171e-16 -0.71626089038368 1.483027409568273
    vertex -4.684727146011314e-16 -0.6580697649255084 1.620772281392712
  endloop
endfacet
facet normal -1 2.12899e-16 1.88826e-16
  outer loop
    vertex -5.163904473204087e-16 -0.2980845323523308 1.97766165245026
    vertex -4.815864419516949e-16 -0.1494601871728389 1.994407594362361
    vertex -5.204498231376744e-16 -0.2152307838944897 1.862747144054608
  endloop
endfacet
facet normal -1 1.06214e-16 -4.97654e-16
  outer loop
    vertex -5.771563755072086e-16 -0.5895103488217742 1.911145611572292
    vertex -5.137331796025423e-16 -0.4864626426386016 1.805694803526285
    vertex -5.061444019858052e-16 -0.6186855581447851 1.762225378184594
  endloop
endfacet
facet normal -1 3.31999e-17 -2.75563e-16
  outer loop
    vertex -4.36945643405009e-16 0.2117355087501153 1.611156970230832
    vertex -4.052033418603191e-16 0.141528660158766 1.487507705320726
    vertex -4.41934702620146e-16 0.06922686280396451 1.612092460717602
  endloop
endfacet
facet normal -1 3.31999e-17 -2.75563e-16
  outer loop
    vertex -4.324472645973171e-16 -0.71626089038368 1.483027409568273
    vertex -4.680308288574733e-16 -0.7897846562743867 1.603299663826992
    vertex -4.684727146011314e-16 -0.6580697649255084 1.620772281392712
  endloop
endfacet
facet normal -1 3.73989e-16 -5.50115e-16
  outer loop
    vertex -6.027784706059263e-16 -0.7306820487327487 1.861747497288425
    vertex -5.771563755072086e-16 -0.5895103488217742 1.911145611572292
    vertex -5.061444019858052e-16 -0.6186855581447851 1.762225378184594
  endloop
endfacet
facet normal -1 3.31999e-17 -2.75563e-16
  outer loop
    vertex -4.103246312310287e-16 -0.0009859676856741606 1.488922329650997
    vertex -4.475777627727583e-16 -0.07248854326666798 1.615496847363815
    vertex -4.41934702620146e-16 0.06922686280396451 1.612092460717602
  endloop
endfacet
facet normal -1 3.31999e-17 -2.75563e-16
  outer loop
    vertex -4.052033418603191e-16 0.141528660158766 1.487507705320726
    vertex -4.103246312310287e-16 -0.0009859676856741606 1.488922329650997
    vertex -4.41934702620146e-16 0.06922686280396451 1.612092460717602
  endloop
endfacet
facet normal -1 3.31999e-17 -2.75563e-16
  outer loop
    vertex -5.170078401322985e-16 -0.06988692823595599 1.867767478235124
    vertex -4.844414053898064e-16 -0.1417422231828905 1.740928882882468
    vertex -5.204498231376744e-16 -0.2152307838944897 1.862747144054608
  endloop
endfacet
facet normal -1 3.31999e-17 -2.75563e-16
  outer loop
    vertex -4.749044901903103e-16 0.143427809225584 1.74067740165237
    vertex -5.123772498971773e-16 0.07402597524550747 1.868302033418556
    vertex -5.052443209561307e-16 0.2190128482382467 1.859885158014361
  endloop
endfacet
facet normal -1 3.91741e-16 9.54358e-16
  outer loop
    vertex -4.041084507475246e-16 0.1494601871728418 1.994407594362361
    vertex -3.618677532668714e-16 0.298084532352334 1.977661652450259
    vertex -5.052443209561307e-16 0.2190128482382467 1.859885158014361
  endloop
endfacet
facet normal -1 7.41696e-17 1.16757e-15
  outer loop
    vertex -3.618677532668714e-16 0.298084532352334 1.977661652450259
    vertex -4.991393478894273e-16 0.3678311545529392 1.855660278969058
    vertex -5.052443209561307e-16 0.2190128482382467 1.859885158014361
  endloop
endfacet
facet normal -1 9.57148e-17 8.01302e-16
  outer loop
    vertex -5.123772498971773e-16 0.07402597524550747 1.868302033418556
    vertex -4.041084507475246e-16 0.1494601871728418 1.994407594362361
    vertex -5.052443209561307e-16 0.2190128482382467 1.859885158014361
  endloop
endfacet
facet normal -1 1.1308e-15 1.77571e-15
  outer loop
    vertex -2.240035044051043e-16 0.7306820487327512 1.861747497288424
    vertex -1.751915213050984e-16 0.8677674782350696 1.801937735804861
    vertex -4.497968622381063e-16 0.7495312597468268 1.722586966132461
  endloop
endfacet
facet normal -1 2.51667e-17 -2.47056e-16
  outer loop
    vertex -5.137331796025423e-16 -0.4864626426386016 1.805694803526285
    vertex -5.483065878403051e-16 -0.4450418679126024 1.949855824363653
    vertex -5.195899506848583e-16 -0.3547092252046961 1.842822325740047
  endloop
endfacet
facet normal -1 3.31999e-17 -2.75563e-16
  outer loop
    vertex -4.564033482560998e-16 -0.356902360117122 1.613258068844829
    vertex -4.691731769380165e-16 -0.5031369493515234 1.641980557772327
    vertex -4.893708355442839e-16 -0.3963451722873246 1.728142833584283
  endloop
endfacet
facet normal -1 5.25296e-16 -8.31961e-16
  outer loop
    vertex -6.2502958398738e-16 -0.8677674782350685 1.801937735804861
    vertex -6.027784706059263e-16 -0.7306820487327487 1.861747497288425
    vertex -5.005762736392614e-16 -0.7509924035728939 1.726078644344743
  endloop
endfacet
facet normal -1 4.39232e-16 2.39864e-15
  outer loop
    vertex -1.751915213050984e-16 0.8677674782350696 1.801937735804861
    vertex -2.847445030019e-16 1 1.732050807569
    vertex -4.378454624318378e-16 0.8643925104769048 1.693054634090487
  endloop
endfacet
facet normal -1 2.72637e-16 -1.20114e-15
  outer loop
    vertex -5.771371431411e-16 -1 1.732050807569
    vertex -6.2502958398738e-16 -0.8677674782350685 1.801937735804861
    vertex -4.956957541003725e-16 -0.8674231933308253 1.694339948857583
  endloop
endfacet
facet normal -1 9.98059e-16 4.55343e-16
  outer loop
    vertex -2.847445030019e-16 1 1.732050807569
    vertex -4.123685520037501e-16 0.9285714285718309 1.608332892742411
    vertex -4.378454624318378e-16 0.8643925104769048 1.693054634090487
  endloop
endfacet
facet normal -1 4.5135e-16 -5.72854e-16
  outer loop
    vertex -4.740255073197626e-16 -0.9285714285718309 1.608332892742411
    vertex -5.771371431411e-16 -1 1.732050807569
    vertex -4.956957541003725e-16 -0.8674231933308253 1.694339948857583
  endloop
endfacet
facet normal -1 3.31999e-17 -2.75563e-16
  outer loop
    vertex -5.204498231376744e-16 -0.2152307838944897 1.862747144054608
    vertex -4.879545222399025e-16 -0.2805146841246791 1.736958412037929
    vertex -5.195899506848583e-16 -0.3547092252046961 1.842822325740047
  endloop
endfacet
facet normal -1 3.31999e-17 -2.75563e-16
  outer loop
    vertex -4.36945643405009e-16 0.2117355087501153 1.611156970230832
    vertex -4.749044901903103e-16 0.143427809225584 1.74067740165237
    vertex -4.688959082659058e-16 0.2899378523169647 1.736524219593621
  endloop
endfacet
facet normal -1 1.35109e-15 1.37718e-15
  outer loop
    vertex -2.715627690442248e-16 0.5895103488217764 1.911145611572291
    vertex -4.660612892300096e-16 0.5963966023211746 1.763159800702639
    vertex -4.92944352158561e-16 0.4901115631918468 1.847911421004189
  endloop
endfacet
facet normal -1 1.64258e-16 1.79259e-15
  outer loop
    vertex -4.991393478894273e-16 0.3678311545529392 1.855660278969058
    vertex -3.176033445227689e-16 0.4450418679126061 1.949855824363652
    vertex -4.92944352158561e-16 0.4901115631918468 1.847911421004189
  endloop
endfacet
facet normal -1 3.31999e-17 -2.75563e-16
  outer loop
    vertex -4.660612892300096e-16 0.5963966023211746 1.763159800702639
    vertex -4.646430211794704e-16 0.4360709288220967 1.738696921684534
    vertex -4.92944352158561e-16 0.4901115631918468 1.847911421004189
  endloop
endfacet
facet normal -1 3.31999e-17 -2.75563e-16
  outer loop
    vertex -4.646430211794704e-16 0.4360709288220967 1.738696921684534
    vertex -4.991393478894273e-16 0.3678311545529392 1.855660278969058
    vertex -4.92944352158561e-16 0.4901115631918468 1.847911421004189
  endloop
endfacet
facet normal -1 3.31999e-17 -2.75563e-16
  outer loop
    vertex -4.324986259750875e-16 0.3615488643128064 1.613068587010573
    vertex -4.36945643405009e-16 0.2117355087501153 1.611156970230832
    vertex -4.688959082659058e-16 0.2899378523169647 1.736524219593621
  endloop
endfacet
facet normal -1 5.56055e-16 1.69786e-15
  outer loop
    vertex -4.660612892300096e-16 0.5963966023211746 1.763159800702639
    vertex -2.240035044051043e-16 0.7306820487327512 1.861747497288424
    vertex -4.497968622381063e-16 0.7495312597468268 1.722586966132461
  endloop
endfacet
facet normal -1 -1.01643e-17 2.79967e-17
  outer loop
    vertex -5.163904473204087e-16 -0.2980845323523308 1.97766165245026
    vertex -5.204498231376744e-16 -0.2152307838944897 1.862747144054608
    vertex -5.195899506848583e-16 -0.3547092252046961 1.842822325740047
  endloop
endfacet
facet normal -1 2.31048e-16 -7.32987e-17
  outer loop
    vertex -5.483065878403051e-16 -0.4450418679126024 1.949855824363653
    vertex -5.163904473204087e-16 -0.2980845323523308 1.97766165245026
    vertex -5.195899506848583e-16 -0.3547092252046961 1.842822325740047
  endloop
endfacet
facet normal -1 3.31999e-17 -2.75563e-16
  outer loop
    vertex -5.137331796025423e-16 -0.4864626426386016 1.805694803526285
    vertex -5.195899506848583e-16 -0.3547092252046961 1.842822325740047
    vertex -4.893708355442839e-16 -0.3963451722873246 1.728142833584283
  endloop
endfacet
facet normal -1 1.70707e-16 -7.78877e-16
  outer loop
    vertex -6.027784706059263e-16 -0.7306820487327487 1.861747497288425
    vertex -5.061444019858052e-16 -0.6186855581447851 1.762225378184594
    vertex -5.005762736392614e-16 -0.7509924035728939 1.726078644344743
  endloop
endfacet
facet normal -1 3.31999e-17 -2.75563e-16
  outer loop
    vertex -5.195899506848583e-16 -0.3547092252046961 1.842822325740047
    vertex -4.879545222399025e-16 -0.2805146841246791 1.736958412037929
    vertex -4.893708355442839e-16 -0.3963451722873246 1.728142833584283
  endloop
endfacet
facet normal -1 3.31999e-17 -2.75563e-16
  outer loop
    vertex -4.879545222399025e-16 -0.2805146841246791 1.736958412037929
    vertex -4.564033482560998e-16 -0.356902360117122 1.613258068844829
    vertex -4.893708355442839e-16 -0.3963451722873246 1.728142833584283
  endloop
endfacet
facet normal -1 8.84309e-16 2.11092e-15
  outer loop
    vertex -3.176033445227689e-16 0.4450418679126061 1.949855824363652
    vertex -2.715627690442248e-16 0.5895103488217764 1.911145611572291
    vertex -4.92944352158561e-16 0.4901115631918468 1.847911421004189
  endloop
endfacet
facet normal -1 3.31999e-17 -2.75563e-16
  outer loop
    vertex -4.123685520037501e-16 0.9285714285718309 1.608332892742411
    vertex -4.151969717099843e-16 0.7905916924976233 1.601973208654937
    vertex -4.378454624318378e-16 0.8643925104769048 1.693054634090487
  endloop
endfacet
facet normal -1 3.31999e-17 -2.75563e-16
  outer loop
    vertex -4.680308288574733e-16 -0.7897846562743867 1.603299663826992
    vertex -4.740255073197626e-16 -0.9285714285718309 1.608332892742411
    vertex -4.956957541003725e-16 -0.8674231933308253 1.694339948857583
  endloop
endfacet
facet normal -1 7.18547e-16 2.38998e-15
  outer loop
    vertex -4.497968622381063e-16 0.7495312597468268 1.722586966132461
    vertex -1.751915213050984e-16 0.8677674782350696 1.801937735804861
    vertex -4.378454624318378e-16 0.8643925104769048 1.693054634090487
  endloop
endfacet
facet normal -1 2.85498e-16 -1.2011e-15
  outer loop
    vertex -6.2502958398738e-16 -0.8677674782350685 1.801937735804861
    vertex -5.005762736392614e-16 -0.7509924035728939 1.726078644344743
    vertex -4.956957541003725e-16 -0.8674231933308253 1.694339948857583
  endloop
endfacet
facet normal -1 3.31999e-17 -2.75563e-16
  outer loop
    vertex -4.151969717099843e-16 0.7905916924976233 1.601973208654937
    vertex -4.497968622381063e-16 0.7495312597468268 1.722586966132461
    vertex -4.378454624318378e-16 0.8643925104769048 1.693054634090487
  endloop
endfacet
facet normal -1 3.31999e-17 -2.75563e-16
  outer loop
    vertex -5.005762736392614e-16 -0.7509924035728939 1.726078644344743
    vertex -4.680308288574733e-16 -0.7897846562743867 1.603299663826992
    vertex -4.956957541003725e-16 -0.8674231933308253 1.694339948857583
  endloop
endfacet
endsolid Created by Gmsh
